<svg width="166" height="149" viewBox="0 0 166 149" fill="none" xmlns="http://www.w3.org/2000/svg">
<path d="M149.4 56.7401C149.4 52.8354 146.223 49.6668 142.308 49.6668C133.336 49.6656 125.132 44.6065 121.12 36.6034L114.311 23.0147C113.31 21.0174 113.09 20.6159 112.893 20.3147C111.543 18.2499 109.342 16.8934 106.887 16.6123C106.529 16.5714 106.07 16.5557 103.831 16.5557H62.169C59.9304 16.5557 59.4713 16.5714 59.1132 16.6123C56.658 16.8934 54.4566 18.2499 53.107 20.3147C52.9102 20.6159 52.6899 21.0174 51.6886 23.0147L44.88 36.6034C40.8677 44.6065 32.6638 49.6656 23.6923 49.6668C19.7771 49.6668 16.6 52.8354 16.6 56.7401V98.1532C16.6 106.613 16.6086 112.365 17.0377 116.778C17.4545 121.064 18.2067 123.211 19.1451 124.7C20.4712 126.804 22.2555 128.584 24.365 129.906C25.8586 130.842 28.0106 131.592 32.3084 132.008C36.7335 132.436 42.5009 132.444 50.9834 132.444H115.017C123.499 132.444 129.267 132.436 133.692 132.008C137.989 131.592 140.141 130.842 141.635 129.906C143.745 128.584 145.529 126.804 146.855 124.7C147.793 123.211 148.545 121.064 148.962 116.778C149.391 112.365 149.4 106.613 149.4 98.1532V56.7401ZM166 98.1532C166 106.286 166.006 112.981 165.481 118.379C164.944 123.903 163.787 128.936 160.91 133.503C158.256 137.715 154.685 141.277 150.462 143.923C145.882 146.793 140.836 147.947 135.296 148.483C129.884 149.006 123.171 149 115.017 149H50.9834C42.8288 149 36.1158 149.006 30.7035 148.483C25.1642 147.947 20.1178 146.793 15.5382 143.923C11.315 141.277 7.74383 137.715 5.09024 133.503C2.2128 128.936 1.05617 123.903 0.518753 118.379C-0.00614125 112.981 1.60838e-06 106.286 3.32885e-06 98.1532V56.7401C3.32885e-06 43.692 10.6092 33.1113 23.6923 33.1113C26.3752 33.11 28.83 31.5996 30.0308 29.2068L36.8394 15.6099C37.6618 13.9694 38.3603 12.5507 39.1981 11.269C43.2477 5.07418 49.8579 1.00378 57.2246 0.161871C58.7481 -0.0121552 60.3311 0.000177752 62.169 0.000196094H103.831C105.669 0.000177757 107.252 -0.0121552 108.775 0.161871C116.142 1.00378 122.752 5.07418 126.802 11.269C127.64 12.5507 128.338 13.9694 129.161 15.6099L135.969 29.2068C137.17 31.5996 139.625 33.1101 142.308 33.1113C155.391 33.1113 166 43.692 166 56.7401V98.1532Z" fill="white"/>
<path d="M99.6 82.7779C99.6 73.6345 92.1679 66.2223 83 66.2223C73.8321 66.2223 66.4 73.6345 66.4 82.7779C66.4 91.9212 73.8321 99.3334 83 99.3334V115.889C64.6641 115.889 49.8 101.065 49.8 82.7779C49.8 64.4911 64.6641 49.6668 83 49.6668C101.336 49.6668 116.2 64.4911 116.2 82.7779C116.2 101.065 101.336 115.889 83 115.889V99.3334C92.1679 99.3334 99.6 91.9212 99.6 82.7779Z" fill="white"/>
</svg>
