<?xml version="1.0" encoding="UTF-8"?>
<svg version="1.1" xmlns="http://www.w3.org/2000/svg" width="3000" height="819">
<path d="M0 0 C98.319375 -1.835625 196.63875 -3.67125 297.9375 -5.5625 C344.25661743 -6.77788452 344.25661743 -6.77788452 391.51147461 -8.01782227 C429.63977051 -8.4197998 429.63977051 -8.4197998 447.5705719 -8.49449158 C459.12743428 -8.57114405 470.6473748 -8.83462145 482.19418302 -9.29939825 C602.23565698 -14.1180024 602.23565698 -14.1180024 649.35320094 29.04564372 C683.94390859 61.37673644 706.28954292 98.70009819 708.19419003 146.71986485 C708.45852857 155.80912347 708.30226254 164.8792497 708.04178612 173.96667844 C707.83320522 181.43787002 707.81489447 188.89114646 707.90960312 196.36444092 C707.92324086 197.45348264 707.9368786 198.54252436 707.9509296 199.66456735 C707.9794035 201.88134764 708.0082589 204.09812306 708.03749023 206.31489348 C708.2875822 226.80504521 708.00590339 247.25902675 707.52125762 267.74321342 C707.12357183 285.08469938 707.19763338 302.3723719 707.60302734 319.71289062 C711.67363552 499.67624602 711.67363552 499.67624602 665.52846169 549.10611081 C625.56401231 589.74116344 570.39648632 592.16354737 516.49609375 592.69140625 C488.97900956 592.84917793 461.4971707 591.69917782 434.01670885 590.41056192 C418.64750049 589.69757974 403.2831913 589.21772388 387.90112305 588.88891602 C386.2440815 588.85313836 386.2440815 588.85313836 384.55356437 588.81663793 C375.90512393 588.63140567 367.25646869 588.45729698 358.60772884 588.28668177 C316.70441376 587.45723909 274.89453216 585.66596437 233 584 C233 646.04 233 708.08 233 772 C156.11 772 79.22 772 0 772 C0 517.24 0 262.48 0 0 Z M251.87025177 206.42393619 C248.74870974 210.20784072 245.49096741 213.49286743 241.69953346 216.59677029 C238.55681469 219.19157436 235.74185541 222.13553821 232.875 225.02734375 C232.24263428 225.66112442 231.61026855 226.29490509 230.95874023 226.94789124 C228.97010014 228.94205978 226.98499473 230.93970353 225 232.9375 C223.63955682 234.30296745 222.27888169 235.66820386 220.91796875 237.03320312 C217.6092969 240.35280886 214.30378678 243.67553273 211 247 C212.32856194 249.92643237 213.79564177 252.0700763 216.01171875 254.390625 C216.60106201 255.01348389 217.19040527 255.63634277 217.79760742 256.27807617 C218.42127197 256.92881104 219.04493652 257.5795459 219.6875 258.25 C220.96964379 259.60462334 222.25090521 260.96008243 223.53125 262.31640625 C224.1396875 262.95980957 224.748125 263.60321289 225.375 264.26611328 C227.73261375 266.78170415 229.98896015 269.3763492 232.23828125 271.98828125 C234.5747114 274.6562669 236.97416251 277.26514554 239.375 279.875 C245.02211499 286.01442265 250.60271549 292.21166116 256.171875 298.421875 C260.29644476 303.01448104 264.44621893 307.58179449 268.625 312.125 C271.60218281 315.36217216 274.55952856 318.61137729 277.4375 321.9375 C281.06212089 326.12109857 284.83385067 330.1643461 288.59741211 334.22241211 C291.27401038 337.11364128 293.92311179 340.01889404 296.5 343 C300.05683038 347.11204293 303.75583684 351.0876962 307.45043945 355.07543945 C312.01610385 360.00664258 316.51752326 364.99306529 321 370 C325.86441563 375.42535726 330.75289279 380.82601209 335.6875 386.1875 C339.54928463 390.38494691 343.32891818 394.63438918 347 399 C351.25583358 397.39517493 353.8588323 394.17834625 356.8125 390.875 C357.34875 390.28460938 357.885 389.69421875 358.4375 389.0859375 C361.70164009 385.48194747 364.91395952 381.83483114 368.09375 378.15625 C371.20129285 374.64116055 374.40737699 371.21722921 377.59765625 367.77734375 C380.27415929 364.88618383 382.92318724 361.98101868 385.5 359 C389.05683038 354.88795707 392.75583684 350.9123038 396.45043945 346.92456055 C401.01610385 341.99335742 405.51752326 337.00693471 410 332 C414.84470939 326.59662142 419.71209075 321.21635577 424.625 315.875 C427.60218281 312.63782784 430.55952856 309.38862271 433.4375 306.0625 C437.06212089 301.87890143 440.83385067 297.8356539 444.59741211 293.77758789 C447.27401038 290.88635872 449.92311179 287.98110596 452.5 285 C455.58897394 281.42648113 458.78844069 277.96290727 462 274.5 C465.79771411 270.40433467 469.54527821 266.27983959 473.19921875 262.0546875 C477.06540488 257.64337751 481.04371973 253.33041542 485 249 C483.59927023 245.83404003 481.94833306 243.69987174 479.50341797 241.26049805 C478.43122513 240.18369026 478.43122513 240.18369026 477.33737183 239.08512878 C476.17650558 237.93504082 476.17650558 237.93504082 474.9921875 236.76171875 C474.19273712 235.96272659 473.39328674 235.16373444 472.5696106 234.3405304 C470.87559405 232.64953472 469.17914797 230.96096996 467.48046875 229.2746582 C464.9005362 226.71285674 462.32857039 224.14327023 459.7578125 221.57226562 C458.10723946 219.92661317 456.45621198 218.28141636 454.8046875 216.63671875 C454.04292206 215.87606613 453.28115662 215.11541351 452.49630737 214.33171082 C451.76259918 213.60438248 451.02889099 212.87705414 450.27294922 212.12768555 C449.6394455 211.49799362 449.00594177 210.8683017 448.35324097 210.2195282 C446.9936097 208.93715211 445.61229007 207.6755524 444.17896843 206.47610474 C440.64409589 203.50742764 437.60071596 200.64510559 434.87973022 196.9034729 C429.39641291 189.70385141 424.18093403 184.95550988 415.03448486 183.41864014 C407.15078608 182.59642665 399.26917331 182.49495455 391.34841204 182.52147627 C388.14345977 182.52412637 384.93975335 182.47978266 381.73513544 182.43715537 C374.15211388 182.33850395 366.57223035 182.32539995 358.98876953 182.36474609 C351.23797316 182.40326897 343.50028861 182.28777355 335.7520529 182.09635103 C329.03809008 181.93669648 322.3282622 181.88107308 315.61245286 181.90297377 C311.62734449 181.91470812 307.65220996 181.89020832 303.66893387 181.76197433 C279.26986857 181.03828154 267.39164351 187.60855665 251.87025177 206.42393619 Z " fill="#00FEAE" transform="translate(1603,24)"/>
<path d="M0 0 C61.84297647 -1.7864589 61.84297647 -1.7864589 81.26841736 -2.28285217 C81.95477772 -2.30041487 82.64113809 -2.31797757 83.34829725 -2.33607246 C106.55221475 -2.92817992 129.75693029 -3.39441909 152.96534729 -3.76853943 C153.72559638 -3.78082651 154.48584548 -3.79311359 155.26913242 -3.805773 C171.80949523 -4.07242413 188.35010131 -4.31892902 204.8910698 -4.54481432 C213.00808138 -4.6557832 221.12502727 -4.77118256 229.24194336 -4.88891602 C230.0494796 -4.90055357 230.85701584 -4.91219113 231.68902287 -4.92418134 C257.65539845 -5.30045064 283.60401932 -5.96644323 309.55972628 -6.79045265 C336.33630447 -7.6389346 363.10316301 -8.17977317 389.8929489 -8.35843412 C393.7153853 -8.38406277 397.53778946 -8.4130439 401.36018562 -8.44407463 C402.11215144 -8.45007528 402.86411725 -8.45607593 403.63886991 -8.46225841 C414.07604144 -8.55300083 424.48919136 -8.84802788 434.91616922 -9.31262257 C490.12100025 -11.77059277 541.97277796 -12.54302768 585.01380963 26.6654087 C589.64007163 30.94712749 594.10241698 35.38922356 598.53178211 39.87313243 C599.96022345 41.31311679 601.40003938 42.7406962 602.84372573 44.16538195 C634.06741951 75.16489756 644.29179846 104.82250687 645.9375 148.4140625 C645.99556556 149.74552014 645.99556556 149.74552014 646.05480416 151.10387592 C646.45174188 160.5815017 646.04255103 169.86355315 645.1640625 179.3046875 C644.9795306 181.85684096 644.8026067 184.40955356 644.63247681 186.96270752 C644.36862948 190.90802162 644.10052617 194.85240854 643.80798149 198.7957077 C643.11949165 208.13404943 642.68796138 217.45492843 642.41699219 226.8125 C642.38785533 227.81544464 642.38785533 227.81544464 642.35812986 228.83865078 C642.28078953 231.5291657 642.20486821 234.21971545 642.13083619 236.91032348 C641.56732391 257.29987377 640.80972438 277.69342202 639.41986465 298.04482079 C639.27976726 300.14080647 639.15026803 302.23753188 639.03222275 304.33487511 C638.86731678 307.1970877 638.66041716 310.05307375 638.44067383 312.91152954 C638.40035506 313.73702195 638.3600363 314.56251436 638.31849575 315.41302168 C637.81687018 321.03019814 636.02802966 323.73443203 631.83460522 327.47698724 C631.2291855 327.97958145 630.62376577 328.48217566 630 329 C628.79105189 330.06180043 627.58264565 331.12421844 626.375 332.1875 C625.71242188 332.75855469 625.04984375 333.32960938 624.3671875 333.91796875 C621.36278158 336.56045779 618.43247611 339.27821314 615.5 342 C611.41447834 345.78901526 607.29605949 349.52172537 603.08203125 353.16796875 C600.39483463 355.53250011 597.75950126 357.95218497 595.125 360.375 C587.51861424 367.36866243 579.88244615 374.31705653 572 381 C576.17384569 385.23057757 580.47601091 389.31183619 584.8125 393.375 C585.48603516 394.00921875 586.15957031 394.6434375 586.85351562 395.296875 C590.87716037 399.07024519 594.96736488 402.74833401 599.1315918 406.36572266 C601.7981563 408.69813907 604.39785285 411.0958423 607 413.5 C610.2778141 416.52004872 613.56583268 419.52204137 616.9375 422.4375 C621.23308762 426.15309266 625.37750736 430.03058591 629.52124023 433.91381836 C631.93377547 436.16089773 634.25009456 438.1667297 637 440 C637.48977265 443.00683748 637.7804956 445.83671706 637.95965576 448.86683655 C638.02501439 449.79805326 638.09037302 450.72926998 638.15771222 451.68870538 C638.37219681 454.83207755 638.56344505 457.97636537 638.75292969 461.12133789 C638.89776098 463.37128801 639.04260796 465.62123713 639.18746948 467.8711853 C640.44504872 488.0612754 641.20489818 508.27353672 641.79596655 528.49291218 C641.8992161 532.02296128 642.00608492 535.55289229 642.11523438 539.08276367 C642.14770806 540.13612781 642.14770806 540.13612781 642.18083778 541.21077203 C642.49090445 550.99854638 643.01822994 560.75163552 643.731565 570.51798195 C644.02776752 574.6531408 644.29143335 578.79056669 644.55804086 582.92772511 C644.76741088 586.11603874 645.00492258 589.29768401 645.29184723 592.48004055 C646.15670621 602.11083306 646.17888999 611.57699146 645.796875 621.22265625 C645.76109844 622.2823997 645.72532187 623.34214315 645.68846117 624.43400005 C644.05536175 668.31948841 633.62133793 697.80857126 601.42449698 729.39885771 C599.96806149 730.83516295 598.52540525 732.28416014 597.08549257 733.73701696 C560.67260275 770.37181311 525.31514755 782.08652094 473.28487354 782.32791545 C459.7504349 782.34106933 446.24199553 781.81727122 432.723377 781.21492061 C422.26814927 780.75687995 411.8248877 780.52758241 401.36018562 780.44407463 C400.60658542 780.4379568 399.85298521 780.43183898 399.07654863 780.42553576 C395.24611754 780.39540528 391.41567083 780.36858914 387.58520675 780.3430438 C360.76258776 780.15828147 333.96411892 779.56521287 307.1550293 778.71411133 C281.18526856 777.89063513 255.22222394 777.26332271 229.24194336 776.88891602 C228.43490655 776.87721019 227.62786974 776.86550436 226.79637727 776.85344381 C218.68844823 776.73605002 210.58046898 776.62250939 202.47244627 776.51178533 C185.96973315 776.28633497 169.46744334 776.03524486 152.96534729 775.76853943 C152.20735817 775.75632062 151.44936904 775.74410182 150.66841055 775.73151274 C127.53220847 775.35720751 104.40007539 774.87474865 81.26841736 774.28285217 C79.97782296 774.24987262 78.68722856 774.21689306 77.35752524 774.18291413 C51.56995265 773.51728861 25.78538434 772.74486275 0 772 C0 713.26 0 654.52 0 594 C133.32 594 266.64 594 404 594 C404 549.45 404 504.9 404 459 C284.21 459 164.42 459 41 459 C41 408.18 41 357.36 41 305 C160.79 305 280.58 305 404 305 C404 263.09 404 221.18 404 178 C270.68 178 137.36 178 0 178 C0 119.26 0 60.52 0 0 Z " fill="#00FEAE" transform="translate(2349,24)"/>
<path d="M0 0 C29.07094619 -0.20531361 58.14182163 -0.36458657 87.21334792 -0.45958797 C90.64548835 -0.47084432 94.07762734 -0.48249322 97.50976562 -0.49438477 C98.53468101 -0.49792596 98.53468101 -0.49792596 99.58030175 -0.50153869 C110.64393191 -0.54070083 121.70714118 -0.6116614 132.77052166 -0.69437516 C144.12264862 -0.77853983 155.47446363 -0.82785515 166.8269223 -0.84679645 C173.20361936 -0.85854137 179.57936189 -0.88618769 185.95575333 -0.95157051 C191.95599933 -1.01259869 197.95489648 -1.0315166 203.95542336 -1.01796913 C206.15895605 -1.02044791 208.3625332 -1.03838857 210.56579781 -1.07284927 C213.57377591 -1.11759386 216.57665297 -1.10689205 219.58474731 -1.08229065 C220.45829743 -1.10850622 221.33184754 -1.1347218 222.23186886 -1.16173178 C224.78412861 -1.10524391 226.62892475 -0.95703821 229 0 C231.5586659 2.72993787 233.28190445 5.69346163 235 9 C235.54527344 9.9082251 236.09054687 10.8164502 236.65234375 11.75219727 C237.28849609 12.89773071 237.28849609 12.89773071 237.9375 14.06640625 C238.43233887 14.95110596 238.92717773 15.83580566 239.43701172 16.74731445 C239.95279785 17.67632568 240.46858398 18.60533691 241 19.5625 C245.55256725 27.68945662 250.1673942 35.77432958 254.875 43.8125 C259.78034305 52.19109389 264.65514558 60.58627387 269.5 69 C274.30839128 77.34805648 279.13897117 85.6824834 284 94 C288.8610296 102.31751792 293.69141103 110.65205653 298.5 119 C305.62086408 131.36022518 312.80183378 143.68467327 320 156 C327.83657983 169.40758718 335.64278608 182.83159279 343.39428711 196.28857422 C348.1382471 204.51945835 352.91849644 212.72859098 357.71289062 220.93017578 C360.82309429 226.25503466 363.9209229 231.58676795 367 236.9296875 C367.50237183 237.80140594 367.50237183 237.80140594 368.01489258 238.69073486 C369.62873886 241.49211183 371.24096889 244.29440788 372.8515625 247.09765625 C376.50089458 253.43977743 380.21012182 259.740801 384 266 C390.37562894 255.27177822 396.60680921 244.46482313 402.78457642 233.62161255 C407.53742526 225.28158703 412.33466245 216.96992159 417.1875 208.6875 C421.69309921 200.99561718 426.13021139 193.26983605 430.5 185.5 C434.86979081 177.73016003 439.30710911 170.00450707 443.8125 162.3125 C448.88328692 153.65326499 453.90200841 144.96570306 458.875 136.25 C459.20794067 135.66652802 459.54088135 135.08305603 459.88391113 134.48190308 C461.57781167 131.51277364 463.27085374 128.54315583 464.96337891 125.57324219 C468.32652044 119.67198324 471.69368174 113.77301988 475.0625 107.875 C475.55914658 107.00545685 475.55914658 107.00545685 476.06582642 106.11834717 C483.95048716 92.31664809 491.90121304 78.5532459 499.85449219 64.79101562 C509.62046051 47.88936607 519.32503406 30.9538425 529 14 C531.64 9.38 534.28 4.76 537 0 C612.57 0 688.14 0 766 0 C766 80 766 80 747 108 C742.37162052 114.85191543 737.7455462 121.70531095 733.125 128.5625 C731.89001918 130.39456174 730.65499179 132.22659208 729.41992188 134.05859375 C726.8751489 137.83337707 724.33056838 141.60829002 721.78613281 145.38330078 C716.29200155 153.53423921 710.79536346 161.68348677 705.29885864 169.83282471 C703.50112366 172.49833394 701.70354084 175.16394573 699.90600586 177.82958984 C694.3485917 186.07076868 688.79033478 194.31137508 683.22900391 202.5499115 C680.04808028 207.26215603 676.86763093 211.97472048 673.6875 216.6875 C672.76387665 218.05625778 672.76387665 218.05625778 671.82159424 219.45266724 C664.35898182 230.5138071 656.92222875 241.59087295 649.53662109 252.70361328 C642.69738068 262.98180419 635.75000739 273.18643414 628.80870056 283.39579773 C624.26036967 290.08614303 619.72009434 296.78194161 615.18197632 303.47921753 C613.85650377 305.43506857 612.53044257 307.39051949 611.2043457 309.34594727 C607.46433732 314.86363827 603.73470768 320.38732833 600.04296875 325.9375 C594.79228064 333.82963454 589.45965919 341.66613048 584.13623047 349.50927734 C579.13720869 356.8757841 574.156641 364.25294027 569.22607422 371.66552734 C564.1235866 379.32147275 558.95929458 386.93631663 553.8125 394.5625 C551.23298039 398.38535424 548.65360331 402.20830464 546.07421875 406.03125 C545.41454102 407.00888809 544.75486328 407.98652618 544.07519531 408.99378967 C539.3452167 416.00419647 534.61914556 423.01722718 529.89453125 430.03125 C527.93613519 432.93786219 525.97765399 435.844417 524.01913452 438.75094604 C522.7681958 440.60777389 521.51755919 442.4648053 520.26724243 444.322052 C518.5149192 446.92489028 516.76147644 449.52697115 515.0078125 452.12890625 C514.50163895 452.88139648 513.99546539 453.63388672 513.47395325 454.40917969 C512.98642075 455.13210205 512.49888824 455.85502441 511.99658203 456.59985352 C511.54659145 457.2785437 511.09660087 457.95723389 510.63297421 458.65649045 C509 461 509 461 507.20704359 463.17319 C501.81826446 469.94807796 500.99730393 475.11910236 501.12025452 483.62966919 C501.11018999 484.8673627 501.10012546 486.10505621 501.08975595 487.38025558 C501.06898174 490.79050891 501.07924098 494.19803872 501.10299766 497.60809612 C501.12098137 501.29447068 501.09839876 504.98063117 501.08087158 508.66697693 C501.05603745 515.04520802 501.05661088 521.42302505 501.07469368 527.80127335 C501.10080064 537.02293348 501.08819762 546.24422525 501.06630235 555.46588157 C501.0318189 570.42912313 501.02841825 585.3922026 501.04467773 600.35546875 C501.06040065 614.88643439 501.06133457 629.41727831 501.04272461 643.94824219 C501.04101233 645.30662484 501.04101233 645.30662484 501.03926545 646.69244957 C501.03022225 653.77528761 501.02032435 660.85812438 501.01015651 667.94096088 C500.96058066 702.6273974 500.98551795 737.3134168 501 772 C424.11 772 347.22 772 268 772 C268.10054687 739.81146484 268.10054687 739.81146484 268.203125 706.97265625 C268.21883485 693.3782217 268.23158241 679.7838813 268.23046875 666.18945312 C268.23003948 659.04630508 268.23035962 651.90315767 268.23193359 644.76000977 C268.23209964 643.864813 268.23226569 642.96961623 268.23243678 642.04729229 C268.23620392 627.62132768 268.28222577 613.19579456 268.34402815 598.76997513 C268.40657355 583.94966771 268.42330874 569.12981127 268.39809489 554.30939096 C268.38398004 545.17433371 268.40499868 536.04077671 268.47190216 526.90594768 C268.51443468 520.62984606 268.51220743 514.35472167 268.47584674 508.07858605 C268.45619707 504.46442377 268.45525752 500.85301093 268.50784111 497.23911667 C268.73261981 480.78920024 267.98194653 469.22013303 256.55420637 456.79523933 C253.84234237 453.66280788 251.66734635 450.17090625 249.4375 446.6875 C248.89867187 445.87547119 248.35984375 445.06344238 247.8046875 444.22680664 C247.35351562 443.54481201 246.90234375 442.86281738 246.4375 442.16015625 C242.3144816 435.95225832 238.12551741 429.78912271 233.9375 423.625 C233.53385223 423.0307724 233.13020447 422.4365448 232.71432495 421.8243103 C230.63923875 418.76962922 228.56365426 415.71528721 226.48779297 412.66113281 C222.88238679 407.35607286 219.28152788 402.04792797 215.68045044 396.7399292 C213.7038318 393.82648499 211.72689959 390.91325357 209.75 388 C208.95833184 386.83333435 208.16666517 385.66666768 207.375 384.5 C206.983125 383.9225 206.59125 383.345 206.1875 382.75 C202.62500006 377.50000008 202.62500006 377.50000008 201.43746948 375.74995422 C200.64590554 374.58343947 199.85434059 373.41692539 199.06277466 372.25041199 C197.08202821 369.3314266 195.10129911 366.41242943 193.12060547 363.4934082 C189.57697761 358.27106905 186.03323703 353.04880661 182.48883057 347.82699585 C173.3757212 334.40104619 164.26889791 320.97086793 155.16955566 307.5355835 C146.56818037 294.83581289 137.95705241 282.14268051 129.34277344 269.45166016 C125.7911603 264.21913795 122.24037419 258.98605453 118.68951416 253.75302124 C116.70970889 250.83532525 114.72985186 247.91766438 112.75 245 C111.95833308 243.8333335 111.16666642 242.66666684 110.375 241.5 C109.983125 240.9225 109.59125 240.345 109.1875 239.75 C105.625 234.5 105.625 234.5 104.43745422 232.74992371 C103.64595109 231.58350392 102.85443702 230.41709157 102.06291199 229.25068665 C100.08115337 226.33030348 98.0995863 223.4097907 96.1184082 220.48901367 C92.58708862 215.28331275 89.05461424 210.07842283 85.5146637 204.87858582 C83.5713066 202.02388277 81.62915624 199.16836011 79.6875 196.3125 C79.30411469 195.74870636 78.92072937 195.18491272 78.52572632 194.60403442 C73.71314349 187.52268955 68.93629247 180.41856242 64.1953125 173.2890625 C63.70478897 172.55163315 63.21426544 171.8142038 62.70887756 171.0544281 C60.32182516 167.46436917 57.93810544 163.87215721 55.55932617 160.27661133 C51.11321636 153.57017218 46.58092161 146.96871896 41.80786133 140.48803711 C38.97801152 136.59350647 36.33354037 132.58316988 33.6875 128.5625 C27.866144 119.77565479 21.98123433 111.03387939 16.0625 102.3125 C15.46180191 101.42632492 15.46180191 101.42632492 14.84896851 100.52224731 C13.6827348 98.80199942 12.51538876 97.082512 11.34765625 95.36328125 C10.3083464 93.83273852 9.270118 92.30126325 8.25651646 90.75357533 C6.9961993 88.918065 6.9961993 88.918065 5.2665472 87.12504864 C-1.57719431 79.08700554 -0.90244951 70.69441883 -0.68359375 60.7421875 C-0.67051592 58.98530054 -0.66056208 57.22838782 -0.65357971 55.47146606 C-0.62702538 50.87756174 -0.55841593 46.28524028 -0.48065186 41.69195557 C-0.40866687 36.99277146 -0.37699341 32.29332815 -0.34179688 27.59375 C-0.26702943 18.39514304 -0.14777254 9.19770383 0 0 Z " fill="#FEFEFE" transform="translate(787,24)"/>
<path d="M0 0 C148.95232549 -3.55332054 148.95232549 -3.55332054 206.57941699 -4.23851681 C221.64205644 -4.41807165 236.70463609 -4.60176994 251.76706482 -4.79828745 C253.58807926 -4.82203491 255.4090954 -4.84565158 257.23011325 -4.8691358 C286.06026411 -5.24201319 314.8748267 -5.90017802 343.69562306 -6.71415543 C373.41749208 -7.5520193 403.1308206 -8.0876387 432.86429381 -8.26451913 C437.10165865 -8.28986186 441.33899508 -8.31851743 445.57632446 -8.34919739 C446.82678314 -8.35809722 446.82678314 -8.35809722 448.10250361 -8.36717686 C459.69445053 -8.45705692 471.26534232 -8.74946494 482.84835165 -9.207964 C599.51996536 -13.82409691 599.51996536 -13.82409691 643.01239496 25.87440747 C648.64565011 31.10694416 654.00318123 36.59669026 659.29882812 42.16796875 C659.99529118 42.89601171 659.99529118 42.89601171 660.7058242 43.63876261 C684.51877935 68.567729 704.22911789 94.73209023 703.54881382 130.55431175 C703.24757387 139.16985999 702.24221168 147.62943715 701.04248047 156.15979004 C700.15235203 162.88235414 699.81913759 169.64774584 699.42847729 176.4139986 C698.5350847 191.68873621 697.01912175 206.82923201 695 222 C693.09778528 222.48226857 691.19510633 222.96270631 689.29223633 223.44238281 C688.2327327 223.71012512 687.17322906 223.97786743 686.08161926 224.25372314 C681.9746592 225.24830715 677.84646485 226.01163615 673.6875 226.75 C665.1151639 228.33169808 656.62080664 230.17599148 648.125 232.125 C634.77455817 235.18015365 621.39635443 238.09046078 608 240.9375 C606.99704895 241.15074921 605.9940979 241.36399841 604.96075439 241.58370972 C590.34330138 244.68805382 575.70944626 247.70554064 561.06558228 250.68237305 C549.35555161 253.06639264 537.69346061 255.60750485 526.04321289 258.27050781 C515.47329672 260.68137172 504.88928711 263.02391839 494.29336548 265.31790161 C492.40401783 265.72780774 490.51515242 266.13994358 488.62680054 266.55441284 C485.98033694 267.13477947 483.33224676 267.70706417 480.68359375 268.27734375 C479.89434509 268.45197144 479.10509644 268.62659912 478.29193115 268.80651855 C474.11593811 269.6955007 470.29892473 270.18835825 466 270 C468.61818749 265.70617252 471.50821065 262.37070852 475.1171875 258.87890625 C478.25710434 255.74550376 481.11955824 252.37072972 484 249 C482.6137057 245.8794002 481.00708912 243.75854373 478.59521484 241.35229492 C477.90044037 240.65444382 477.20566589 239.95659271 476.48983765 239.2375946 C475.7378006 238.49274307 474.98576355 237.74789154 474.2109375 236.98046875 C473.43368317 236.20367264 472.65642883 235.42687653 471.85562134 234.62654114 C470.20868327 232.98262367 468.55931595 231.34113687 466.90771484 229.7019043 C464.40021134 227.21252907 461.9006744 224.71537425 459.40234375 222.21679688 C457.79734353 220.61671739 456.19188894 219.01709352 454.5859375 217.41796875 C453.47610001 216.30980049 453.47610001 216.30980049 452.34384155 215.179245 C451.63015411 214.47193741 450.91646667 213.76462982 450.18115234 213.03588867 C449.56541351 212.42396164 448.94967468 211.81203461 448.3152771 211.18156433 C446.96993754 209.91392134 445.60251554 208.66757283 444.18456841 207.48170471 C440.64785382 204.51151869 437.6019896 201.6470997 434.87973022 197.9034729 C429.39641291 190.70385141 424.18093403 185.95550988 415.03448486 184.41864014 C407.15078608 183.59642665 399.26917331 183.49495455 391.34841204 183.52147627 C388.14345977 183.52412637 384.93975335 183.47978266 381.73513544 183.43715537 C374.15211388 183.33850395 366.57223035 183.32539995 358.98876953 183.36474609 C351.23797316 183.40326897 343.50028861 183.28777355 335.7520529 183.09635103 C329.03809008 182.93669648 322.3282622 182.88107308 315.61245286 182.90297377 C311.62734449 182.91470812 307.65220996 182.89020832 303.66893387 182.76197433 C288.43542942 182.31013828 276.17812524 182.67679961 264.54469192 193.4376651 C260.03297098 197.8448295 255.8820316 202.56068594 251.87045348 207.42373449 C248.74624237 211.21095206 245.48466797 214.49842833 241.69056892 217.60573483 C238.62850842 220.13111209 235.88527047 222.9918484 233.09375 225.80859375 C232.48358032 226.42017838 231.87341064 227.031763 231.24475098 227.66188049 C229.32743835 229.58471802 227.41366298 231.51103094 225.5 233.4375 C224.18773415 234.75479059 222.87523605 236.07184986 221.5625 237.38867188 C218.37231494 240.5897861 215.18529349 243.79401865 212 247 C213.32856194 249.92643237 214.79564177 252.0700763 217.01171875 254.390625 C217.60106201 255.01348389 218.19040527 255.63634277 218.79760742 256.27807617 C219.42127197 256.92881104 220.04493652 257.5795459 220.6875 258.25 C221.96964379 259.60462334 223.25090521 260.96008243 224.53125 262.31640625 C225.1396875 262.95980957 225.748125 263.60321289 226.375 264.26611328 C228.73261375 266.78170415 230.98896015 269.3763492 233.23828125 271.98828125 C235.5747114 274.6562669 237.97416251 277.26514554 240.375 279.875 C244.54513328 284.40867972 248.68771343 288.96511677 252.80078125 293.55078125 C254.33572765 295.26021534 255.87515116 296.96563528 257.41796875 298.66796875 C258.20816406 299.54066406 258.99835938 300.41335938 259.8125 301.3125 C260.52019531 302.09238281 261.22789062 302.87226563 261.95703125 303.67578125 C268 310.55066922 268 310.55066922 268 313 C255.244787 316.32329856 242.39830254 319.10587819 229.5 321.8125 C225.31476869 322.69502953 221.12999651 323.57972311 216.9453125 324.46484375 C215.40322617 324.79068451 215.40322617 324.79068451 213.82998657 325.12310791 C205.00077902 326.99195405 196.186466 328.92455773 187.375 330.875 C179.08210124 332.70720632 170.79101367 334.46715486 162.4375 336 C152.98052576 337.73805863 143.62680851 339.86427013 134.25537109 342.01171875 C121.03305335 345.03081797 107.76783717 347.8409988 94.49914551 350.64807129 C81.77932658 353.33912499 69.06948746 356.06693337 56.375 358.875 C46.96386913 360.95457546 37.54638283 362.90751991 28.06616211 364.64501953 C21.7645905 365.81195352 15.53910749 367.21737115 9.32446289 368.78198242 C6.06263292 369.58959212 3.39453814 370 0 370 C0 247.9 0 125.8 0 0 Z " fill="#FEFEFE" transform="translate(1603,24)"/>
<path d="M0 0 C76.89 0 153.78 0 233 0 C233 96.03 233 192.06 233 291 C241.58 291 250.16 291 259 291 C259 291.66 259 292.32 259 293 C257.63273621 294.34602356 257.63273621 294.34602356 255.68041992 295.94848633 C250.73223032 300.15976203 246.17569555 304.70986256 241.60277748 309.32205772 C240.07839314 310.8594035 238.55073346 312.39342976 237.02226257 313.92671204 C233.78282241 317.1774755 230.54737081 320.43219033 227.3125 323.6875 C223.54933509 327.47435716 219.78450376 331.25952714 216.01543236 335.04050636 C214.51726615 336.54510931 213.02216452 338.05271131 211.5271759 339.56047058 C210.61239975 340.47854996 209.6976236 341.39662933 208.75512695 342.3425293 C207.9554097 343.14748337 207.15569244 343.95243744 206.33174133 344.78178406 C203.9891172 347.01035295 201.53746332 348.99883673 199 351 C197.31185448 352.64490737 195.64644579 354.31335486 194 356 C193.04714934 356.95551336 192.09290734 357.90964081 191.13745117 358.86254883 C190.63731003 359.36268997 190.13716888 359.86283112 189.62187195 360.37812805 C179.31093597 370.68906403 179.31093597 370.68906403 169 381 C169.41342651 381.40898529 169.82685303 381.81797058 170.25280762 382.23934937 C174.54089797 386.48331538 178.82202923 390.73420827 183.09912109 394.98925781 C184.69791772 396.57797457 186.29850169 398.16489469 187.90087891 399.75 C190.19902251 402.02398254 192.49073622 404.30427312 194.78125 406.5859375 C195.50308472 407.29744965 196.22491943 408.00896179 196.96862793 408.74203491 C197.62931274 409.40256866 198.28999756 410.06310242 198.97070312 410.74365234 C199.55694458 411.32545258 200.14318604 411.90725281 200.74719238 412.50668335 C202 414 202 414 202 416 C202.59296875 416.25394531 203.1859375 416.50789063 203.796875 416.76953125 C206.24397699 418.13626374 207.49347954 419.51742982 209.25 421.6875 C211.44248685 424.39554687 213.7536635 426.68130036 216.40332031 428.92578125 C222.09370625 433.87580489 227.386943 439.22263708 232.71875 444.55078125 C233.82825713 445.65706921 234.93783685 446.76328438 236.04748535 447.86943054 C238.35536467 450.17136359 240.66121043 452.47531154 242.96582031 454.78051758 C245.92436652 457.7391663 248.88978644 460.69082369 251.85692596 463.64085102 C254.14219301 465.9150382 256.42293985 468.1937165 258.70240784 470.47371483 C259.79488488 471.56500994 260.88898815 472.65467954 261.98472595 473.74270058 C263.50695054 475.25518703 265.02277909 476.77380494 266.53710938 478.29418945 C267.40122437 479.15687943 268.26533936 480.0195694 269.15563965 480.90840149 C271 483 271 483 271 485 C258.46 484.67 245.92 484.34 233 484 C233 580.03 233 676.06 233 775 C156.11 775 79.22 775 0 775 C0 519.25 0 263.5 0 0 Z " fill="#FEFFFE" transform="translate(13,21)"/>
<path d="M0 0 C76.89 0 153.78 0 233 0 C233 255.75 233 511.5 233 775 C156.11 775 79.22 775 0 775 C0 679.3 0 583.6 0 485 C-12.21 485 -24.42 485 -37 485 C-35.17713656 481.35427311 -33.81460267 479.56697076 -31.00106812 476.76055908 C-29.74744225 475.50280922 -29.74744225 475.50280922 -28.4684906 474.21965027 C-27.54995804 473.30830826 -26.63142548 472.39696625 -25.68505859 471.45800781 C-24.70897691 470.48249044 -23.73333574 469.50653212 -22.75810242 468.53016663 C-20.1119385 465.88342897 -17.45965413 463.24290245 -14.80623198 460.6034441 C-12.03331342 457.84302927 -9.26605875 455.07694845 -6.49819946 452.3114624 C-1.25715988 447.07663863 3.98895703 441.84693394 9.23691499 436.61904693 C15.2117704 430.66654735 21.18094679 424.70836677 27.14965177 418.74970102 C39.42679086 406.49346622 51.71104648 394.24438858 64 382 C62.20691005 378.13989002 59.91976852 375.68562165 56.875 372.6875 C55.50988281 371.33205078 55.50988281 371.33205078 54.1171875 369.94921875 C51.88813464 367.80015709 49.58575481 365.76207314 47.23861694 363.74301147 C43.35972236 360.35790018 39.68816059 356.81780128 36.06494141 353.16259766 C35.42325012 352.51944611 34.78155884 351.87629456 34.12042236 351.21365356 C32.7432749 349.83273276 31.36728254 348.4506592 29.99235916 347.06752396 C27.81765611 344.87995552 25.639755 342.69561584 23.46102905 340.51205444 C18.8461909 335.88585082 14.23532257 331.25570313 9.625 326.625 C4.2598971 321.23629775 -1.10681967 315.84922336 -6.47774124 310.46632004 C-8.62582971 308.31173863 -10.7708925 306.15417529 -12.91586304 303.99649048 C-14.22419792 302.68452546 -15.53267206 301.37269929 -16.84130859 300.06103516 C-17.43869843 299.458479 -18.03608826 298.85592285 -18.65158081 298.23510742 C-21.54667683 295.25059333 -21.54667683 295.25059333 -25 293 C-25 292.34 -25 291.68 -25 291 C-16.75 290.67 -8.5 290.34 0 290 C0 194.3 0 98.6 0 0 Z " fill="#FEFFFE" transform="translate(505,21)"/>
<path d="M0 0 C62.1039199 -1.52551547 62.1039199 -1.52551547 81.60186768 -1.94940186 C82.63525623 -1.97189789 82.63525623 -1.97189789 83.68952132 -1.9948484 C106.96367043 -2.50011534 130.23839776 -2.89840804 153.51580811 -3.21807861 C154.27785194 -3.22857095 155.03989578 -3.23906329 155.82503185 -3.24987357 C172.40145546 -3.47753599 188.97805569 -3.68804047 205.55491908 -3.88096504 C213.68866997 -3.97573116 221.82237315 -4.07427359 229.95605469 -4.17480469 C230.76529079 -4.18474238 231.5745269 -4.19468006 232.40828532 -4.20491889 C258.46290905 -4.52663854 284.50469209 -5.09572742 310.55159015 -5.79858878 C337.40483241 -6.52186194 364.25103027 -6.98470784 391.11384377 -7.13753925 C394.94044335 -7.15942679 398.76701948 -7.1841748 402.59358978 -7.21067047 C403.3464321 -7.21579462 404.09927441 -7.22091877 404.87493013 -7.22619819 C415.35033762 -7.30387134 425.80839833 -7.55660763 436.27644021 -7.95229957 C453.87919295 -8.61766694 471.45281991 -8.96501023 489.06738281 -8.62792969 C491.04570912 -8.59036667 491.04570912 -8.59036667 493.06400162 -8.55204481 C533.9231767 -7.52742708 560.5453864 3.22699557 588.97233725 32.94017553 C624 70.49599301 624 70.49599301 624 78 C617.83421883 79.35460637 611.66759692 80.70530135 605.50024414 82.05273438 C603.41245702 82.50940283 601.3248833 82.96704827 599.23754883 83.42578125 C587.58981655 85.98485902 575.9370739 88.43436289 564.2141571 90.62490845 C557.14200255 91.95278388 550.13246754 93.48942083 543.125 95.125 C529.7757381 98.18505375 516.3962512 101.09048272 503 103.9375 C501.99704895 104.15074921 500.9940979 104.36399841 499.96075439 104.58370972 C485.34162763 107.68840928 470.70610737 110.70630206 456.06054688 113.68338013 C444.44969396 116.0471059 432.88689572 118.56481521 421.33764648 121.21557617 C407.40576206 124.39794101 393.42285411 127.33708324 379.44189453 130.29492188 C367.74143574 132.77147534 356.05240436 135.29207236 344.375 137.875 C336.08311166 139.70857323 327.7905313 141.46724337 319.4375 143 C309.98052576 144.73805863 300.62680851 146.86427013 291.25537109 149.01171875 C278.03305335 152.03081797 264.76783717 154.8409988 251.49914551 157.64807129 C238.77932077 160.33912622 226.06961109 163.06748156 213.375 165.875 C204.21937856 167.89643067 195.0636428 169.86875546 185.82862854 171.49676609 C181.5888136 172.26239147 177.42428534 173.11632072 173.26927185 174.25968933 C156.00086397 178.85189671 138.97315381 178.66130902 121.26186371 178.50640106 C117.4027068 178.4774362 113.54371521 178.47655947 109.68444824 178.47302246 C98.47703459 178.44702375 87.26975695 178.37721827 76.0625 178.3125 C50.961875 178.209375 25.86125 178.10625 0 178 C0 119.26 0 60.52 0 0 Z " fill="#FEFEFE" transform="translate(2349,24)"/>
<path d="M0 0 C-2.57673076 3.80519457 -5.1544968 7.60968507 -7.7331543 11.41357422 C-8.60712527 12.70310274 -9.480831 13.99281108 -10.35424805 15.28271484 C-11.62215646 17.1551166 -12.89107267 19.02683211 -14.16015625 20.8984375 C-14.53962906 21.45929047 -14.91910187 22.02014343 -15.31007385 22.59799194 C-15.68993942 23.15781769 -16.06980499 23.71764343 -16.46118164 24.29443359 C-16.82950212 24.84921989 -17.1978226 25.40400618 -17.5773043 25.97560418 C-19 28 -19 28 -20.74825293 30.10535991 C-26.15482351 36.91481342 -27.00326538 42.07969473 -26.87974548 50.62966919 C-26.89484227 52.48620945 -26.89484227 52.48620945 -26.91024405 54.38025558 C-26.93101826 57.79050891 -26.92075902 61.19803872 -26.89700234 64.60809612 C-26.87901863 68.29447068 -26.90160124 71.98063117 -26.91912842 75.66697693 C-26.94396255 82.04520802 -26.94338912 88.42302505 -26.92530632 94.80127335 C-26.89919936 104.02293348 -26.91180238 113.24422525 -26.93369765 122.46588157 C-26.9681811 137.42912313 -26.97158175 152.3922026 -26.95532227 167.35546875 C-26.93959935 181.88643439 -26.93866543 196.41727831 -26.95727539 210.94824219 C-26.95841691 211.85383062 -26.95955843 212.75941906 -26.96073455 213.69244957 C-26.96977775 220.77528761 -26.97967565 227.85812438 -26.98984349 234.94096088 C-27.03941934 269.6273974 -27.01448205 304.3134168 -27 339 C-103.89 339 -180.78 339 -260 339 C-260 244.95 -260 150.9 -260 54 C-239.34390065 49.4097557 -218.73958757 44.87137997 -198.015625 40.64453125 C-189.62810906 38.93126424 -181.25776849 37.14352014 -172.88989258 35.3371582 C-166.23163195 33.90180219 -159.56962395 32.48648906 -152.90234375 31.09375 C-137.99343235 27.9776467 -123.09746862 24.83608691 -108.25 21.4375 C-96.02938333 18.64127064 -83.77574805 16.06079078 -71.49267578 13.55664062 C-70.07193121 13.26697071 -68.65119546 12.9772575 -67.23046875 12.6875 C-66.18660004 12.47462341 -66.18660004 12.47462341 -65.12164307 12.25744629 C-58.28051078 10.85900384 -51.45153019 9.40549836 -44.625 7.9375 C-43.51108887 7.6988623 -42.39717773 7.46022461 -41.24951172 7.21435547 C-35.87440953 6.0600392 -30.50258479 4.89276954 -25.13592529 3.69975281 C-23.17042392 3.26355873 -21.2042386 2.83059705 -19.23779297 2.39868164 C-16.75489027 1.85236648 -14.27336574 1.29973916 -11.79345703 0.73999023 C-10.68470215 0.49708252 -9.57594727 0.2541748 -8.43359375 0.00390625 C-7.45447021 -0.21450928 -6.47534668 -0.4329248 -5.46655273 -0.65795898 C-3 -1 -3 -1 0 0 Z " fill="#00FEAE" transform="translate(1315,457)"/>
<path d="M0 0 C0 71.61 0 143.22 0 217 C-76.89 217 -153.78 217 -233 217 C-233 161.89 -233 106.78 -233 50 C-203.49889634 43.192053 -203.49889634 43.192053 -189.15142822 40.15917969 C-184.65189777 39.20781374 -180.15395348 38.24902389 -175.65625 37.2890625 C-174.75190216 37.09604553 -173.84755432 36.90302856 -172.915802 36.7041626 C-165.02994799 35.01606147 -157.16055499 33.25851837 -149.29293823 31.48773193 C-135.24800753 28.32797346 -121.17116671 25.36167073 -107.0625 22.5 C-93.35842021 19.72010075 -79.66568002 16.90100897 -66 13.9375 C-65.25640228 13.77626648 -64.51280457 13.61503296 -63.74667358 13.44891357 C-55.18722167 11.58993257 -46.63477828 9.70011336 -38.0859375 7.79296875 C-37.26804749 7.6106218 -36.45015747 7.42827484 -35.60748291 7.24040222 C-31.69839715 6.36839898 -27.78997815 5.49360486 -23.8828125 4.61303711 C-3.34200564 0 -3.34200564 0 0 0 Z " fill="#00FFAE" transform="translate(738,579)"/>
<path d="M0 0 C2.31239655 0.0528201 4.62485577 0.09922501 6.93740797 0.14466715 C16.57900748 0.34343379 26.20872789 0.67655086 35.8398385 1.16922426 C37.22991569 1.23984412 38.62012326 1.30794395 40.01044893 1.37348986 C44.55466884 1.58860845 49.08892363 1.87854141 53.62652922 2.20922327 C54.7551069 2.26672786 55.88368458 2.32423244 57.04646158 2.3834796 C65.24037874 3.09033311 68.67984613 5.81993208 73.87091398 11.99022913 C75.12513375 13.12446385 76.39825813 14.2385139 77.69757414 15.32079554 C82.41911956 19.39107351 86.78759813 23.79359576 91.17463636 28.21878672 C92.67720047 29.73429869 94.18302815 31.24650238 95.68967009 32.75795984 C98.8779394 35.95754872 102.06220236 39.16110602 105.24591398 42.36522913 C108.95887939 46.10182806 112.67348622 49.83676544 116.39229536 53.56754923 C117.87562046 55.05735379 119.35590498 56.55013498 120.83609343 58.04305506 C121.73107542 58.94134027 122.62605742 59.83962549 123.54816008 60.76513147 C124.33677427 61.55898249 125.12538847 62.3528335 125.93790007 63.1707406 C127.74655593 65.04779824 127.74655593 65.04779824 129.87091398 65.99022913 C129.87091398 68.99022913 129.87091398 68.99022913 128.5433383 70.39601469 C127.90926054 70.90349965 127.27518278 71.41098461 126.62189054 71.9338479 C123.02755041 74.95010091 119.63383569 78.11136416 116.31524992 81.42563868 C115.81011649 81.92952399 115.30498306 82.43340931 114.78454256 82.95256388 C113.13950047 84.59720865 111.4973859 86.24474377 109.85528898 87.89232874 C108.66222093 89.08567934 107.4689317 90.27880884 106.27543974 91.47173548 C103.05683172 94.69005815 99.84130288 97.91144113 96.6263423 101.13340688 C93.2582518 104.50777477 89.88730406 107.87928591 86.51666594 111.25110865 C80.14358974 117.62728527 73.77306561 124.00600534 67.40346766 130.38565642 C60.14784807 137.65247725 52.88936786 144.91643789 45.6306529 152.1801666 C30.70756786 167.11368685 15.78805628 182.0507728 0.87091398 196.99022913 C-2.98579153 195.40349659 -5.41794561 192.94518646 -8.34212923 190.01096582 C-8.85457984 189.4995185 -9.36703046 188.98807117 -9.89500988 188.46112543 C-11.6101475 186.74694007 -13.3180362 185.02571096 -15.02605867 183.30443811 C-16.25447789 182.07381763 -17.48334549 180.84364459 -18.71262789 179.61388636 C-21.35813793 176.9654429 -24.00046014 174.31387336 -26.64036608 171.65984392 C-30.81160857 167.46635311 -34.9899114 163.27994562 -39.16921663 159.09449244 C-45.77557945 152.47674757 -52.37725179 145.85434623 -58.97690284 139.22990853 C-70.80395661 127.35851636 -82.63661538 115.49271712 -94.47447097 103.63209635 C-98.6312248 99.46691678 -102.78515321 95.2989452 -106.93685985 91.12873495 C-109.51501896 88.53996038 -112.09518496 85.95319303 -114.67586374 83.36693048 C-115.87565875 82.16365436 -117.07458066 80.95950696 -118.27258158 79.7544446 C-119.90278195 78.11484436 -121.53599695 76.47830793 -123.17001009 74.84250879 C-124.08476421 73.92423524 -124.99951834 73.00596169 -125.94199228 72.05986166 C-127.9509087 69.95850979 -127.9509087 69.95850979 -130.12908602 68.99022913 C-130.12908602 68.00022913 -130.12908602 67.01022913 -130.12908602 65.99022913 C-128.66514254 64.61301661 -128.66514254 64.61301661 -126.63763094 63.09740686 C-122.04957212 59.25532083 -119.34545654 54.87564647 -116.23302889 49.81249475 C-87.48802944 3.64792685 -50.50693031 -1.16372056 0 0 Z " fill="#00FFAE" transform="translate(376.12908601760864,335.00977087020874)"/>
<path d="M0 0 C0 36.63 0 73.26 0 111 C-76.89 111 -153.78 111 -233 111 C-233 90.54 -233 70.08 -233 49 C-217.25 45.5 -217.25 45.5 -209.51150513 43.78314209 C-202.54902409 42.2379085 -195.58866043 40.68420063 -188.6328125 39.109375 C-168.55153639 34.57423951 -148.40901213 30.36516628 -128.24499512 26.21411133 C-113.19277425 23.11519577 -98.14369866 20.00804871 -83.125 16.75 C-82.40156403 16.59308685 -81.67812805 16.43617371 -80.93276978 16.27450562 C-71.250999 14.17083947 -61.58071702 12.0166263 -51.91186523 9.85449219 C-39.81271854 7.14951559 -27.71386256 4.46255351 -15.5625 2 C-14.55026367 1.79221924 -13.53802734 1.58443848 -12.49511719 1.37036133 C-11.56989258 1.18626709 -10.64466797 1.00217285 -9.69140625 0.8125 C-8.89935791 0.65394531 -8.10730957 0.49539063 -7.29125977 0.33203125 C-5 0 -5 0 0 0 Z " fill="#00FFAE" transform="translate(246,685)"/>
</svg>
