<svg width="25.61" height="30" viewBox="0 0 25.61 30" fill="none" xmlns="http://www.w3.org/2000/svg"><path d="M25.044 23.38a16.286 16.286 0 0 1 -1.612 2.9q-1.274 1.815 -2.078 2.511 -1.243 1.143 -2.67 1.176 -1.027 0.002 -2.467 -0.589 -1.443 -0.587 -2.656 -0.587 -1.271 -0.001 -2.73 0.587c-0.975 0.395 -1.759 0.6 -2.36 0.621q-1.368 0.058 -2.731 -1.208 -0.87 -0.759 -2.173 -2.6 -1.397 -1.966 -2.297 -4.565Q0.304 18.818 0.304 16.186q0 -3.016 1.305 -5.198 1.025 -1.75 2.733 -2.763a7.372 7.372 0 0 1 3.694 -1.042c0.724 0 1.676 0.225 2.857 0.665q1.767 0.664 2.266 0.666 0.375 0 2.513 -0.784 2.019 -0.727 3.416 -0.607 3.788 0.303 5.681 2.991 -3.385 2.053 -3.351 5.741c0.02 1.914 0.714 3.507 2.079 4.773a6.772 6.772 0 0 0 2.078 1.363q-0.251 0.724 -0.531 1.39M19.257 0.6q-0.001 2.252 -1.641 4.197c-1.318 1.541 -2.913 2.433 -4.642 2.292a4.286 4.286 0 0 1 -0.035 -0.568c0 -1.441 0.627 -2.982 1.741 -4.243q0.834 -0.956 2.12 -1.591Q18.082 0.061 19.224 0q0.033 0.303 0.032 0.6" fill="black"/></svg>