<svg width="28" height="27.125" viewBox="0 0 28 27.125" fill="none" xmlns="http://www.w3.org/2000/svg"><path d="M4.946 23.677c1.48 0.333 2.992 0.496 4.51 0.486a15.662 15.662 0 0 0 11.197 -4.161c5.988 -6.055 3.8 -15.369 3.732 -15.763a1.129 1.129 0 0 0 -0.857 -0.857 20.125 20.125 0 0 0 -4.51 -0.484 15.575 15.575 0 0 0 -11.231 4.183c-6.021 6.033 -3.766 15.347 -3.699 15.741a1.129 1.129 0 0 0 0.857 0.857m4.442 -14.996a13.37 13.37 0 0 1 9.572 -3.495 19.775 19.775 0 0 1 3.383 0.282c0.35 2.109 1.026 8.648 -3.224 12.898A13.431 13.431 0 0 1 9.478 21.875a19.25 19.25 0 0 1 -3.304 -0.282c-0.36 -2.12 -1.037 -8.649 3.214 -12.911" fill="currentColor"/><path d="m8.925 17.24 1.6 1.601 2.019 -2.019 2.018 2.019 1.601 -1.601 -2.03 -2.019 1.794 -1.793 2.018 2.03 1.601 -1.601 -2.03 -2.018 2.03 -2.019 -1.601 -1.601 -2.018 2.03 -2.019 -2.03 -1.601 1.601 2.03 2.019 -1.794 1.792 -2.018 -2.03 -1.601 1.601 2.03 2.019z" fill="currentColor"/></svg>