<svg width="28" height="28" viewBox="0 0 28 28" fill="none" xmlns="http://www.w3.org/2000/svg"><path d="M14.227 2.625C7.83 2.625 2.625 7.826 2.625 14.219S7.83 25.813 14.227 25.813c6.396 0 11.602 -5.201 11.602 -11.594S20.624 2.625 14.226 2.625m0 20.869c-5.118 0 -9.281 -4.162 -9.281 -9.275 0 -5.114 4.163 -9.275 9.281 -9.275s9.281 4.161 9.281 9.275 -4.164 9.275 -9.281 9.275" fill="currentColor"/><path x1="4.34766" y1="16.75" x2="12.3477" y2="16.75" stroke="currentColor" stroke-width="2.1875" d="M3.804 14.656L10.804 14.656"/><path x1="21.3477" y1="16.75" x2="29.3477" y2="16.75" stroke="currentColor" stroke-width="2.1875" d="M18.679 14.656L25.679 14.656"/><path cx="16.3477" cy="17" r="5" stroke="currentColor" stroke-width="2.1875" d="M18.679 14.875A4.375 4.375 0 0 1 14.304 19.25A4.375 4.375 0 0 1 9.929 14.875A4.375 4.375 0 0 1 18.679 14.875z"/><path cx="16.3477" cy="17" r="2" fill="currentColor" d="M16.054 14.875A1.75 1.75 0 0 1 14.304 16.625A1.75 1.75 0 0 1 12.554 14.875A1.75 1.75 0 0 1 16.054 14.875z"/></svg>