<svg width="28" height="28" viewBox="0 0 28 28" fill="none" xmlns="http://www.w3.org/2000/svg"><path d="M14.222 2.765a11.2 11.2 0 0 0 -7.973 3.313c-4.395 4.395 -4.395 11.55 0 15.947a11.2 11.2 0 0 0 7.973 3.313c3.006 0 5.837 -1.176 7.973 -3.313 4.396 -4.396 4.396 -11.55 0 -15.947a11.2 11.2 0 0 0 -7.973 -3.313m6.379 17.665a8.969 8.969 0 0 1 -4.303 2.4v-0.041a7 7 0 0 1 0.474 -2.547l-2.101 -0.823a9.231 9.231 0 0 0 -0.622 3.652 8.969 8.969 0 0 1 -6.205 -2.643 8.977 8.977 0 0 1 -2.629 -6.205q0.135 0.005 0.271 0.006c1.152 0.003 2.295 -0.21 3.369 -0.63l-0.823 -2.099a6.913 6.913 0 0 1 -2.572 0.465 8.951 8.951 0 0 1 2.384 -4.295 8.977 8.977 0 0 1 4.479 -2.445 6.737 6.737 0 0 1 -0.403 2.199l2.121 0.768c0.356 -0.977 0.541 -2.006 0.542 -3.045 0 -0.038 -0.004 -0.074 -0.005 -0.111a8.969 8.969 0 0 1 6.024 2.634 8.977 8.977 0 0 1 2.621 6.03 8.925 8.925 0 0 0 -3.143 0.533l0.772 2.12c0.7 -0.257 1.437 -0.395 2.181 -0.408a8.969 8.969 0 0 1 -2.432 4.483" fill="currentColor"/><path d="M16.616 16.442a8.75 8.75 0 0 0 -1.043 1.264l1.867 1.263c0.225 -0.333 0.485 -0.647 0.77 -0.931a7.263 7.263 0 0 1 1.328 -1.048l-1.183 -1.92c-0.632 0.388 -1.214 0.849 -1.739 1.372m-6.377 -6.377a6.475 6.475 0 0 1 -0.932 0.767l1.262 1.87a8.75 8.75 0 0 0 1.264 -1.044 9.625 9.625 0 0 0 1.373 -1.74l-1.921 -1.181a7.35 7.35 0 0 1 -1.046 1.327" fill="currentColor"/></svg>