<svg width="28" height="28" viewBox="0 0 28 28" fill="none" xmlns="http://www.w3.org/2000/svg"><g clip-path="url(#clip0_1250_4373)"><path d="M6.261 22.196a11.2 11.2 0 0 0 7.973 3.312c3.006 0 5.836 -1.176 7.973 -3.312 4.396 -4.397 4.396 -11.55 0 -15.947a11.2 11.2 0 0 0 -7.973 -3.313 11.2 11.2 0 0 0 -7.973 3.314c-4.396 4.395 -4.396 11.55 0 15.946m8.321 -16.986c1.883 0.067 3.696 0.73 5.18 1.892l-5.528 5.527 -1.647 -1.647c1.309 -1.667 2.021 -3.729 1.995 -5.772m-3.607 4.161L8.706 7.101a8.925 8.925 0 0 1 3.629 -1.703c-0.018 1.394 -0.502 2.793 -1.36 3.972m-1.606 1.583A6.825 6.825 0 0 1 5.469 12.145a8.925 8.925 0 0 1 1.645 -3.447zm-4.144 3.434c0.088 0.002 0.173 0.016 0.261 0.016a9.074 9.074 0 0 0 5.498 -1.833l1.654 1.653L7.114 19.749a8.986 8.986 0 0 1 -1.887 -5.361m13.862 3.095c1.175 -0.855 2.571 -1.339 3.955 -1.36a8.96 8.96 0 0 1 -1.687 3.628zm0.674 3.862a8.925 8.925 0 0 1 -3.449 1.657 6.825 6.825 0 0 1 1.192 -3.915zm-5.688 1.901a8.925 8.925 0 0 1 -5.368 -1.901l5.528 -5.527 1.649 1.649c-1.243 1.628 -1.871 3.683 -1.81 5.779m9.159 -9.37c-2.037 -0.02 -4.096 0.688 -5.759 1.993l-1.646 -1.646 5.526 -5.526c1.154 1.488 1.811 3.299 1.88 5.179" fill="currentColor"/></g><defs><clipPath id="clip0_1250_4373"><path width="30.9266" height="30.9266" fill="currentColor" transform="translate(.805 .792)" d="M0 0H27.061V27.061H0V0z"/></clipPath></defs></svg>