<svg width="22" height="22.846" viewBox="0 0 22 22.846" fill="none" xmlns="http://www.w3.org/2000/svg"><path d="M19.851 11.81c0 -4.887 -3.963 -8.85 -8.851 -8.85S2.149 6.922 2.149 11.811c0 4.887 3.963 8.849 8.851 8.849s8.851 -3.962 8.851 -8.85m1.726 0c0 5.842 -4.735 10.577 -10.577 10.577S0.423 17.652 0.423 11.81c0 -5.841 4.735 -10.577 10.577 -10.577s10.577 4.736 10.577 10.577" fill="currentColor"/><path d="M10.016 16.464 6.346 12.485l1.147 -1.244 2.414 2.616 4.501 -5.855L15.654 9.13z" fill="currentColor"/><path d="M21.154 11.81c0 -5.607 -4.546 -10.154 -10.154 -10.154s-10.154 4.546 -10.154 10.154c0 5.608 4.546 10.154 10.154 10.154s10.154 -4.546 10.154 -10.154m-1.727 0c0 -4.654 -3.773 -8.427 -8.427 -8.427s-8.427 3.773 -8.427 8.428c0 4.654 3.773 8.426 8.427 8.426s8.427 -3.773 8.427 -8.427m-3.199 -2.733 -6.182 8.044 -4.011 -4.349 -0.265 -0.286 0.266 -0.287 1.457 -1.581 2.384 2.584 4.474 -5.822zm-6.292 5.437 -2.443 -2.649 -0.571 0.619 3.065 3.324 5.094 -6.627 -0.618 -0.558zm10.337 -2.704c0 5.122 -4.151 9.274 -9.273 9.274S1.727 16.932 1.727 11.809C1.727 6.689 5.878 2.537 11 2.537s9.273 4.152 9.273 9.274m1.727 0c0 6.075 -4.925 11 -11 11s-11 -4.925 -11 -11 4.925 -11 11 -11 11 4.925 11 11" fill="currentColor"/></svg>