<svg width="28" height="28" viewBox="0 0 28 28" fill="none" xmlns="http://www.w3.org/2000/svg"><path d="M7.392 4.052h13.414c0.617 0 1.118 0.502 1.118 1.118v17.886a1.12 1.12 0 0 1 -1.118 1.118H7.392a1.12 1.12 0 0 1 -1.118 -1.118V5.168c0 -0.617 0.502 -1.118 1.118 -1.118" stroke="currentColor" stroke-width="2.2357321212121213" stroke-linecap="round" stroke-linejoin="round"/><path d="m21.925 4.052 -4.137 5.171a1.12 1.12 0 0 1 -0.874 0.419H11.283a1.12 1.12 0 0 1 -0.874 -0.419L6.274 4.052" stroke="currentColor" stroke-width="2.2357321212121213" stroke-linejoin="round"/><path d="m21.925 24.173 -4.137 -5.171a1.12 1.12 0 0 0 -0.874 -0.42H11.283a1.12 1.12 0 0 0 -0.874 0.419L6.274 24.173" stroke="currentColor" stroke-width="2.2357321212121213" stroke-linejoin="round"/><path d="M14.096 15.231v3.353" stroke="currentColor" stroke-width="2.2357321212121213" stroke-linecap="round" stroke-linejoin="round"/></svg>