<svg width="20" height="20" viewBox="0 0 20 20" fill="none" xmlns="http://www.w3.org/2000/svg">
<path d="M7 2.99997C7 2.50048 6.9982 2.2263 6.97266 2.03612C6.9723 2.03348 6.97106 2.03082 6.97071 2.0283C6.96853 2.028 6.96612 2.02763 6.96387 2.02733C6.86872 2.01455 6.75253 2.00761 6.59766 2.00389L6 1.99998H3.00001C2.50051 1.99998 2.22632 2.00178 2.03614 2.02733C2.03355 2.02768 2.0308 2.02796 2.02833 2.0283C2.02798 2.03078 2.0277 2.03353 2.02735 2.03612C2.00181 2.2263 2.00001 2.50048 2.00001 2.99997V5.99993L2.00391 6.59758C2.00764 6.75246 2.01457 6.86865 2.02735 6.96379C2.02765 6.96605 2.02802 6.96845 2.02833 6.97063C2.03085 6.97098 2.0335 6.97222 2.03614 6.97258C2.22632 6.99812 2.50051 6.99992 3.00001 6.99992H6C6.4995 6.99992 6.77369 6.99812 6.96387 6.97258C6.96617 6.97227 6.96849 6.97093 6.97071 6.97063C6.97101 6.96841 6.97235 6.96609 6.97266 6.96379C6.9982 6.77361 7 6.49943 7 5.99993V2.99997ZM9 5.99993C9 6.44306 9.00176 6.87596 8.9541 7.23039C8.90258 7.61359 8.77728 8.05076 8.41406 8.41397C8.05085 8.77718 7.61367 8.90248 7.23047 8.954C6.87604 9.00165 6.44314 8.9999 6 8.9999H3.00001C2.55687 8.9999 2.12397 9.00165 1.76954 8.954C1.38634 8.90248 0.94916 8.77718 0.585945 8.41397C0.22273 8.05076 0.0974268 7.61359 0.0459066 7.23039C0.0220772 7.05315 0.0103158 6.85633 0.00489106 6.64836L8.24709e-06 5.99993V2.99997C8.24709e-06 2.55684 -0.00174578 2.12395 0.0459066 1.76952C0.0974268 1.38632 0.22273 0.94915 0.585945 0.585939C0.949161 0.222727 1.38634 0.0974257 1.76954 0.0459061C2.12397 -0.00174577 2.55687 8.24681e-06 3.00001 8.24709e-06H6L6.64844 0.004891C6.8564 0.0103157 7.05323 0.022077 7.23047 0.0459061C7.61367 0.0974257 8.05085 0.222727 8.41406 0.585939C8.77728 0.94915 8.90258 1.38632 8.9541 1.76952C9.00176 2.12395 9 2.55684 9 2.99997V5.99993Z" fill="currentColor"/>
<path d="M7 13.9998C7 13.5003 6.9982 13.2262 6.97266 13.036C6.9723 13.0333 6.97106 13.0307 6.97071 13.0282C6.96853 13.0279 6.96612 13.0275 6.96387 13.0272C6.86872 13.0144 6.75253 13.0075 6.59766 13.0038L6 12.9998H3.00001C2.50051 12.9998 2.22632 13.0016 2.03614 13.0272C2.03355 13.0275 2.0308 13.0278 2.02833 13.0282C2.02798 13.0306 2.0277 13.0334 2.02735 13.036C2.00181 13.2262 2.00001 13.5003 2.00001 13.9998V16.9998L2.00391 17.5974C2.00764 17.7523 2.01457 17.8685 2.02735 17.9637C2.02765 17.9659 2.02802 17.9683 2.02833 17.9705C2.03085 17.9708 2.0335 17.9721 2.03614 17.9724C2.22632 17.998 2.50051 17.9998 3.00001 17.9998H6C6.4995 17.9998 6.77369 17.998 6.96387 17.9724C6.96617 17.9721 6.96849 17.9708 6.97071 17.9705C6.97101 17.9683 6.97235 17.966 6.97266 17.9637C6.9982 17.7735 7 17.4993 7 16.9998V13.9998ZM9 16.9998C9 17.4429 9.00176 17.8758 8.9541 18.2303C8.90258 18.6135 8.77728 19.0506 8.41406 19.4138C8.05085 19.777 7.61367 19.9023 7.23047 19.9539C6.87604 20.0015 6.44314 19.9998 6 19.9998H3.00001C2.55687 19.9998 2.12397 20.0015 1.76954 19.9539C1.38634 19.9023 0.94916 19.777 0.585945 19.4138C0.22273 19.0506 0.0974268 18.6135 0.0459066 18.2303C0.0220772 18.053 0.0103158 17.8562 0.00489106 17.6482L8.24709e-06 16.9998V13.9998C8.24709e-06 13.5567 -0.00174578 13.1238 0.0459066 12.7694C0.0974268 12.3862 0.22273 11.949 0.585945 11.5858C0.949161 11.2226 1.38634 11.0973 1.76954 11.0458C2.12397 10.9981 2.55687 10.9999 3.00001 10.9999H6L6.64844 11.0048C6.8564 11.0102 7.05323 11.0219 7.23047 11.0458C7.61367 11.0973 8.05085 11.2226 8.41406 11.5858C8.77728 11.949 8.90258 12.3862 8.9541 12.7694C9.00176 13.1238 9 13.5567 9 13.9998V16.9998Z" fill="currentColor"/>
<path d="M18 2.99997C18 2.50048 17.9982 2.2263 17.9726 2.03612C17.9723 2.03348 17.971 2.03082 17.9707 2.0283C17.9685 2.028 17.9661 2.02763 17.9639 2.02733C17.8687 2.01455 17.7525 2.00761 17.5976 2.00389L17 1.99998H14C13.5005 1.99998 13.2263 2.00178 13.0361 2.02733C13.0335 2.02768 13.0308 2.02796 13.0283 2.0283C13.028 2.03078 13.0277 2.03353 13.0273 2.03612C13.0018 2.2263 13 2.50048 13 2.99997V5.99993L13.0039 6.59758C13.0076 6.75246 13.0146 6.86865 13.0273 6.96379C13.0276 6.96605 13.028 6.96845 13.0283 6.97063C13.0308 6.97098 13.0335 6.97222 13.0361 6.97258C13.2263 6.99812 13.5005 6.99992 14 6.99992H17C17.4995 6.99992 17.7737 6.99812 17.9639 6.97258C17.9662 6.97227 17.9685 6.97093 17.9707 6.97063C17.971 6.96841 17.9723 6.96609 17.9726 6.96379C17.9982 6.77361 18 6.49943 18 5.99993V2.99997ZM20 5.99993C20 6.44306 20.0017 6.87596 19.9541 7.23039C19.9026 7.61359 19.7773 8.05076 19.4141 8.41397C19.0508 8.77718 18.6137 8.90248 18.2305 8.954C17.876 9.00165 17.4431 8.9999 17 8.9999H14C13.5569 8.9999 13.124 9.00165 12.7695 8.954C12.3863 8.90248 11.9492 8.77718 11.5859 8.41397C11.2227 8.05076 11.0974 7.61359 11.0459 7.23039C11.0221 7.05315 11.0103 6.85633 11.0049 6.64836L11 5.99993V2.99997C11 2.55684 10.9982 2.12395 11.0459 1.76952C11.0974 1.38632 11.2227 0.94915 11.5859 0.585939C11.9492 0.222727 12.3863 0.0974257 12.7695 0.0459061C13.124 -0.00174577 13.5569 8.24681e-06 14 8.24709e-06H17L17.6484 0.004891C17.8564 0.0103157 18.0532 0.022077 18.2305 0.0459061C18.6137 0.0974257 19.0508 0.222727 19.4141 0.585939C19.7773 0.94915 19.9026 1.38632 19.9541 1.76952C20.0017 2.12395 20 2.55684 20 2.99997V5.99993Z" fill="currentColor"/>
<path d="M14.5 19V12.0001C14.5 11.4478 14.9477 11.0001 15.5 11.0001C16.0523 11.0001 16.5 11.4478 16.5 12.0001V19C16.5 19.5523 16.0523 20 15.5 20C14.9477 20 14.5 19.5523 14.5 19Z" fill="currentColor"/>
<path d="M12 14.4999H19C19.5523 14.4999 20 14.9476 20 15.4999C20 16.0521 19.5523 16.4999 19 16.4999H12C11.4477 16.4999 11 16.0521 11 15.4999C11 14.9476 11.4477 14.4999 12 14.4999Z" fill="currentColor"/>
</svg>
