<svg width="24" height="24" viewBox="0 0 24 24" fill="none" xmlns="http://www.w3.org/2000/svg"><path d="M16.215 0c0.909 0 1.705 -0.002 2.358 0.069 0.688 0.075 1.352 0.242 1.962 0.662s0.986 0.969 1.278 1.567c0.277 0.569 0.527 1.29 0.815 2.114l1.006 2.88c0.105 0.303 0.215 0.614 0.282 0.891 0.074 0.302 0.12 0.652 0.047 1.044s-0.244 0.706 -0.422 0.966c-0.163 0.237 -0.378 0.493 -0.588 0.742L12 24 1.047 10.935c-0.21 -0.249 -0.425 -0.505 -0.588 -0.742A2.492 2.492 0 0 1 0.037 9.227a2.4 2.4 0 0 1 0.046 -1.044c0.067 -0.277 0.177 -0.588 0.282 -0.891l1.006 -2.88c0.288 -0.824 0.537 -1.545 0.815 -2.114 0.292 -0.599 0.667 -1.148 1.278 -1.567C4.075 0.311 4.739 0.144 5.427 0.069 6.08 -0.002 6.877 0 7.785 0zM12 17.679l2.884 -8.646H9.117zm-8.331 -7.749 4.83 5.764 -2.136 -6.406zm11.829 5.764 4.832 -5.763 -2.695 -0.643zM7.785 2.581c-0.971 0 -1.588 0.002 -2.051 0.053 -0.43 0.046 -0.591 0.123 -0.689 0.19s-0.223 0.189 -0.406 0.563c-0.198 0.405 -0.394 0.962 -0.702 1.842l-0.755 2.158 3.067 -0.732 1.602 -4.074zm9.964 4.074 3.066 0.732 -0.753 -2.158c-0.307 -0.88 -0.504 -1.436 -0.702 -1.842 -0.183 -0.374 -0.308 -0.496 -0.406 -0.563 -0.099 -0.067 -0.258 -0.143 -0.689 -0.19 -0.464 -0.051 -1.08 -0.053 -2.051 -0.053h-0.066zm-7.102 -4.074c0 0.15 -0.026 0.305 -0.085 0.453L9.22 6.452h5.561l-1.342 -3.417a1.2 1.2 0 0 1 -0.085 -0.453z" fill="currentColor"/></svg>