<svg width="24" height="19.034" viewBox="0 0 24 19.034" fill="none" xmlns="http://www.w3.org/2000/svg"><path d="M21.334 6.798c0 -1.32 -0.003 -2.174 -0.086 -2.803 -0.078 -0.589 -0.204 -0.774 -0.305 -0.877 -0.102 -0.103 -0.283 -0.232 -0.861 -0.31 -0.616 -0.085 -1.454 -0.088 -2.749 -0.088H6.667c-1.295 0 -2.133 0.002 -2.749 0.088 -0.577 0.079 -0.759 0.207 -0.861 0.31 -0.101 0.103 -0.227 0.288 -0.305 0.877 -0.082 0.629 -0.086 1.483 -0.086 2.803v5.439c0 1.32 0.003 2.174 0.086 2.803 0.078 0.589 0.204 0.774 0.305 0.877 0.102 0.103 0.283 0.232 0.861 0.31 0.616 0.084 1.454 0.088 2.749 0.088h10.666c1.295 0 2.133 -0.002 2.749 -0.088 0.577 -0.079 0.759 -0.207 0.861 -0.31 0.101 -0.103 0.227 -0.288 0.305 -0.877 0.082 -0.629 0.086 -1.483 0.086 -2.803zm2.666 5.439c0 1.243 0.003 2.313 -0.109 3.164 -0.117 0.891 -0.383 1.746 -1.063 2.438s-1.517 0.964 -2.391 1.084c-0.836 0.114 -1.884 0.111 -3.103 0.111H6.665c-1.219 0 -2.267 0.003 -3.103 -0.112 -0.874 -0.12 -1.712 -0.391 -2.391 -1.083s-0.944 -1.547 -1.061 -2.438C-0.003 14.549 0 13.48 0 12.237V6.798c0 -1.243 -0.003 -2.312 0.109 -3.164 0.117 -0.891 0.383 -1.746 1.063 -2.438S2.689 0.232 3.563 0.111C4.399 -0.002 5.447 0 6.666 0h10.667c1.219 0 2.267 -0.003 3.103 0.112 0.874 0.12 1.712 0.391 2.391 1.083s0.945 1.547 1.063 2.438c0.113 0.853 0.109 1.922 0.109 3.164z" fill="currentColor"/><path d="m23.263 6.655 -9.474 4.831a3.934 3.934 0 0 1 -3.578 0L0.738 6.654l1.192 -2.433 9.474 4.831a1.309 1.309 0 0 0 1.194 0l9.474 -4.83z" fill="currentColor"/></svg>