<svg width="20" height="18.518" viewBox="0 0 20 18.518" fill="none" xmlns="http://www.w3.org/2000/svg"><path d="M2 1.029C2 0.461 2.448 0 3 0S4 0.461 4 1.029v8.23c0 0.568 -0.448 1.029 -1 1.029s-1 -0.46 -1 -1.029z" fill="currentColor"/><path d="M16 15.432c0 -0.568 0.448 -1.029 1 -1.029s1 0.461 1 1.03v2.057c0 0.568 -0.448 1.029 -1 1.029s-1 -0.461 -1 -1.029z" fill="currentColor"/><path d="M2 13.375c0 -0.569 0.448 -1.03 1 -1.03s1 0.461 1 1.03v4.115c0 0.568 -0.448 1.029 -1 1.029s-1 -0.461 -1 -1.029z" fill="currentColor"/><path d="M16 1.029C16 0.461 16.448 0 17 0s1 0.461 1 1.029v8.23c0 0.568 -0.448 1.029 -1 1.029s-1 -0.461 -1 -1.029z" fill="currentColor"/><path d="M9 1.029C9 0.461 9.448 0 10 0s1 0.461 1 1.029v3.087c0 0.568 -0.448 1.028 -1 1.028s-1 -0.46 -1 -1.028z" fill="currentColor"/><path d="M9 9.259c0 -0.568 0.448 -1.029 1 -1.029s1 0.461 1 1.029v8.23c0 0.568 -0.448 1.029 -1 1.029s-1 -0.461 -1 -1.029z" fill="currentColor"/><path d="M4 11.317c0 -0.568 -0.448 -1.03 -1 -1.03s-1 0.462 -1 1.03 0.448 1.029 1 1.029 1 -0.461 1 -1.03m2 0c0 1.704 -1.343 3.086 -3 3.086S0 13.023 0 11.317s1.343 -3.087 3 -3.087 3 1.383 3 3.087" fill="currentColor"/><path d="M11 6.172c0 -0.568 -0.448 -1.029 -1 -1.029s-1 0.461 -1 1.03 0.448 1.028 1 1.028 1 -0.461 1 -1.029m2 0c0 1.704 -1.343 3.087 -3 3.087s-3 -1.383 -3 -3.087 1.343 -3.086 3 -3.086 3 1.382 3 3.086" fill="currentColor"/><path d="M18 12.346c0 -0.568 -0.448 -1.03 -1 -1.03s-1 0.462 -1 1.03 0.448 1.029 1 1.029 1 -0.461 1 -1.03m2 0c0 1.703 -1.343 3.086 -3 3.086s-3 -1.382 -3 -3.086 1.343 -3.087 3 -3.087S20 10.642 20 12.346" fill="currentColor"/></svg>