<svg width="24" height="17.6" viewBox="0 0 24 17.6" fill="none" xmlns="http://www.w3.org/2000/svg"><path d="M12 0c6.648 0 10.273 5.141 11.502 7.282 0.208 0.362 0.526 0.856 0.496 1.546 -0.029 0.692 -0.395 1.165 -0.637 1.516 -0.739 1.067 -2.122 2.856 -4.022 4.386C17.443 16.259 14.945 17.6 12 17.6s-5.443 -1.341 -7.339 -2.87C2.76 13.2 1.379 11.411 0.639 10.344c-0.241 -0.351 -0.608 -0.824 -0.637 -1.516 -0.029 -0.689 0.288 -1.184 0.496 -1.546C1.727 5.141 5.353 0 12 0m0 2.2C6.621 2.2 3.565 6.373 2.416 8.373c-0.063 0.109 -0.109 0.188 -0.146 0.257q-0.036 0.069 -0.051 0.103c0.014 0.024 0.032 0.059 0.065 0.109 0.044 0.067 0.098 0.146 0.172 0.252 0.675 0.976 1.919 2.578 3.592 3.926 1.676 1.352 3.696 2.379 5.95 2.379s4.274 -1.028 5.95 -2.379c1.672 -1.348 2.916 -2.949 3.592 -3.926 0.073 -0.106 0.127 -0.184 0.171 -0.252q0.046 -0.074 0.064 -0.109 -0.012 -0.034 -0.049 -0.103c-0.037 -0.068 -0.083 -0.148 -0.146 -0.257C20.435 6.373 17.379 2.2 12 2.2" fill="currentColor"/><path d="M16.419 8.8c0 2.43 -1.979 4.4 -4.418 4.4s-4.419 -1.97 -4.419 -4.4 1.979 -4.4 4.418 -4.4 4.418 1.97 4.418 4.4" fill="currentColor"/></svg>