<svg width="51.838" height="47" viewBox="0 0 51.838 47" fill="none" xmlns="http://www.w3.org/2000/svg"><path d="M46.654 18.776c0 -1.282 -0.005 -1.986 -0.071 -2.474 0 -0.007 -0.004 -0.014 -0.005 -0.02l-0.017 -0.002c-0.493 -0.066 -1.204 -0.07 -2.499 -0.07h-36.287c-1.295 0 -2.005 0.005 -2.498 0.07l-0.021 0.002 -0.002 0.021c-0.066 0.487 -0.071 1.191 -0.071 2.473v3.848c0 0.632 0 0.98 0.018 1.23q0 0.016 0.002 0.03l0.033 0.006c0.253 0.017 0.603 0.017 1.243 0.017 0.568 0 1.125 -0.002 1.595 0.03 0.493 0.034 1.079 0.113 1.686 0.361a5.156 5.156 0 0 1 2.804 2.776c0.251 0.601 0.33 1.181 0.364 1.669 0.032 0.465 0.03 1.016 0.03 1.578v8.98c0 1.282 0.005 1.985 0.071 2.473q0 0.01 0.002 0.018c0.007 0.001 0.014 0.004 0.021 0.005 0.493 0.066 1.203 0.07 2.498 0.07h20.735c1.295 0 2.005 -0.005 2.498 -0.07q0.01 -0.002 0.018 -0.005c0.001 -0.006 0.004 -0.012 0.005 -0.018 0.066 -0.488 0.071 -1.192 0.071 -2.473V30.322c0 -0.563 -0.001 -1.113 0.03 -1.579 0.034 -0.489 0.113 -1.069 0.364 -1.669a5.156 5.156 0 0 1 2.805 -2.776c0.607 -0.249 1.192 -0.328 1.686 -0.361 0.47 -0.032 1.026 -0.03 1.595 -0.03 0.639 0 0.99 0 1.243 -0.017q0.017 -0.003 0.03 -0.006 0.003 -0.014 0.005 -0.03c0.017 -0.25 0.018 -0.598 0.018 -1.23zm5.184 3.848c0 0.563 0.001 1.113 -0.03 1.579 -0.034 0.488 -0.113 1.068 -0.364 1.668a5.156 5.156 0 0 1 -2.805 2.776c-0.607 0.249 -1.192 0.328 -1.686 0.361 -0.47 0.032 -1.026 0.03 -1.595 0.03 -0.639 0 -0.99 0.001 -1.243 0.018q-0.018 0 -0.033 0.002l-0.002 0.032c-0.017 0.25 -0.018 0.598 -0.018 1.23v8.98c0 1.137 0.005 2.248 -0.119 3.157 -0.133 0.984 -0.458 2.105 -1.4 3.037s-2.075 1.253 -3.068 1.386c-0.919 0.122 -2.04 0.117 -3.189 0.117h-20.735c-1.149 0 -2.271 0.005 -3.189 -0.117 -0.993 -0.133 -2.127 -0.454 -3.068 -1.386 -0.941 -0.932 -1.266 -2.053 -1.4 -3.037 -0.124 -0.91 -0.119 -2.02 -0.119 -3.157V30.322c0 -0.633 0 -0.981 -0.018 -1.23 0 -0.012 -0.004 -0.023 -0.005 -0.033l-0.03 -0.002c-0.253 -0.017 -0.603 -0.018 -1.243 -0.018 -0.568 0 -1.125 0.002 -1.595 -0.03 -0.493 -0.033 -1.079 -0.112 -1.686 -0.361a5.156 5.156 0 0 1 -2.804 -2.776c-0.251 -0.601 -0.33 -1.181 -0.364 -1.668 -0.032 -0.466 -0.03 -1.016 -0.03 -1.579v-3.848c0 -1.138 -0.005 -2.248 0.119 -3.157 0.133 -0.984 0.458 -2.105 1.4 -3.037S3.594 11.328 4.587 11.196c0.919 -0.122 2.04 -0.117 3.189 -0.117h36.287c1.149 0 2.271 -0.005 3.189 0.117 0.993 0.132 2.127 0.454 3.068 1.386s1.266 2.053 1.4 3.037c0.123 0.909 0.119 2.02 0.119 3.157z" fill="#00FFAE"/><path d="M44.062 23.908c1.431 0 2.592 1.149 2.592 2.566s-1.16 2.566 -2.592 2.566h-36.287c-1.431 0 -2.592 -1.149 -2.592 -2.566s1.16 -2.566 2.592 -2.566z" fill="#00FFAE"/><path d="M28.511 44.434c0 1.417 -1.16 2.566 -2.592 2.566s-2.592 -1.149 -2.592 -2.566v-33.356c0 -1.417 1.16 -2.565 2.592 -2.565s2.592 1.149 2.592 2.566z" fill="#00FFAE"/><path d="M5.184 7.571v-0.469c0 -4.844 4.794 -8.264 9.436 -6.733a27.82 27.82 0 0 1 10.853 6.639l2.278 2.255a2.547 2.547 0 0 1 0 3.629 2.61 2.61 0 0 1 -3.665 0l-2.278 -2.255a22.601 22.601 0 0 0 -8.826 -5.4C11.697 4.814 10.368 5.761 10.368 7.102v0.469c0 0.99 0.641 1.868 1.59 2.182l4.414 1.458c1.358 0.449 2.091 1.901 1.638 3.245 -0.453 1.344 -1.92 2.069 -3.278 1.621l-4.412 -1.456C7.253 13.609 5.184 10.77 5.184 7.57" fill="#00FFAE"/><path d="M46.654 7.571v-0.469c0 -4.844 -4.794 -8.264 -9.436 -6.733a27.82 27.82 0 0 0 -10.853 6.639l-2.278 2.255a2.547 2.547 0 0 0 0 3.629 2.61 2.61 0 0 0 3.665 0l2.278 -2.255a22.601 22.601 0 0 1 8.826 -5.4c1.286 -0.424 2.615 0.523 2.615 1.865v0.469a2.302 2.302 0 0 1 -1.59 2.182l-4.415 1.458c-1.357 0.449 -2.09 1.901 -1.637 3.245 0.453 1.344 1.92 2.069 3.278 1.621l4.412 -1.456c3.066 -1.012 5.135 -3.852 5.135 -7.051" fill="#00FFAE"/></svg>