<svg width="30" height="30" viewBox="0 0 30 30" fill="none" xmlns="http://www.w3.org/2000/svg"><g clip-path="url(#clip0_1250_4590)"><path d="M15 12.273v5.809h8.073c-0.355 1.868 -1.419 3.45 -3.014 4.514l4.868 3.777c2.837 -2.618 4.473 -6.464 4.473 -11.032a17.143 17.143 0 0 0 -0.273 -3.068z" fill="#4285F4"/><path d="m6.593 17.855 -1.097 0.84 -3.887 3.027C4.077 26.618 9.136 30 15 30c4.05 0 7.446 -1.336 9.927 -3.627l-4.869 -3.777c-1.336 0.9 -3.04 1.445 -5.058 1.445 -3.9 0 -7.214 -2.632 -8.4 -6.177z" fill="#34A853"/><path d="M1.609 8.277A14.829 14.829 0 0 0 0 15c0 2.427 0.586 4.705 1.609 6.723 0 0.013 4.991 -3.873 4.991 -3.873a9 9 0 0 1 -0.477 -2.85c0 -0.996 0.177 -1.95 0.477 -2.85z" fill="#FBBC05"/><path d="M15 5.973c2.21 0 4.173 0.763 5.741 2.236l4.295 -4.295C22.431 1.485 19.05 0 15 0 9.136 0 4.077 3.368 1.61 8.277L6.6 12.15c1.186 -3.546 4.5 -6.177 8.4 -6.177" fill="#EA4335"/></g><defs><clipPath id="clip0_1250_4590"><path width="41" height="41" fill="white" d="M0 0h30v30H0z"/></clipPath></defs></svg>