<svg width="28" height="27.152" viewBox="0 0 28 27.152" fill="none" xmlns="http://www.w3.org/2000/svg"><path d="M6.274 12.515c0 -1.519 0 -2.277 0.307 -2.945s0.882 -1.161 2.036 -2.149l1.119 -0.959c2.081 -1.785 3.124 -2.679 4.366 -2.679s2.282 0.894 4.366 2.679l1.119 0.958c1.153 0.987 1.729 1.482 2.036 2.149s0.307 1.426 0.307 2.945v4.739c0 2.108 0 3.163 -0.653 3.817 -0.656 0.653 -1.709 0.653 -3.817 0.653H10.752c-2.108 0 -3.163 0 -3.817 -0.653 -0.653 -0.656 -0.653 -1.709 -0.653 -3.817z" stroke="currentColor" stroke-width="2.2357321212121213"/><path d="M16.891 21.727v-5.591a1.12 1.12 0 0 0 -1.119 -1.118h-3.353a1.12 1.12 0 0 0 -1.119 1.118v5.588" stroke="currentColor" stroke-width="2.2357321212121213" stroke-linecap="round" stroke-linejoin="round"/></svg>