<svg width="19.714" height="24" viewBox="0 0 19.714 24" fill="none" xmlns="http://www.w3.org/2000/svg"><mask id="path-1-inside-1_1349_2927" fill="white"><path d="M0 5.647C0 2.985 0 1.654 0.822 0.827 1.643 0 2.965 0 5.61 0h8.416c2.644 0 3.967 0 4.789 0.827s0.821 2.158 0.821 4.82v12.706c0 2.661 0 3.993 -0.821 4.82 -0.822 0.827 -2.145 0.827 -4.789 0.827H5.61c-2.644 0 -3.967 0 -4.788 -0.827S0 21.014 0 18.353z"/></mask><path d="M5.61 5.968a1.091 1.091 0 0 0 0 2.181V5.968m8.416 2.181a1.091 1.091 0 1 0 0 -2.181v2.181m-8.416 3.465a1.091 1.091 0 1 0 0 2.181v-2.181m8.416 2.181a1.091 1.091 0 0 0 0 -2.181v2.181M5.61 17.263a1.091 1.091 0 0 0 0 2.182v-2.182m5.611 2.182a1.091 1.091 0 1 0 0 -2.182v2.182M5.61 7.058v1.091h8.416V5.968H5.61zm0 5.648v1.09h8.416v-2.181H5.61zm0 5.647v1.091h5.611v-2.182H5.61zM5.61 0v2.181h8.416v-4.363H5.61zM19.637 5.647h-2.181v12.706h4.364V5.647zM14.026 24v-2.182H5.61v4.365h8.416zM0 18.353h2.181V5.647h-4.363v12.706zM5.61 24v-2.182c-1.384 0 -2.201 -0.004 -2.786 -0.083 -0.519 -0.07 -0.516 -0.161 -0.454 -0.099L0.821 23.173 -0.726 24.711c0.883 0.889 1.958 1.212 2.966 1.348 0.945 0.128 2.11 0.123 3.37 0.123zM0 18.353h-2.181c0 1.269 -0.005 2.44 0.122 3.387 0.135 1.009 0.453 2.084 1.334 2.971l1.548 -1.538 1.547 -1.538c0.06 0.06 -0.033 0.057 -0.104 -0.473 -0.079 -0.591 -0.084 -1.417 -0.084 -2.809zm19.637 0h-2.182c0 1.392 -0.005 2.218 -0.084 2.809 -0.07 0.53 -0.163 0.533 -0.104 0.473l1.548 1.538 1.547 1.538c0.881 -0.887 1.2 -1.963 1.334 -2.971 0.127 -0.946 0.122 -2.117 0.122 -3.387zM14.025 24v2.182c1.26 0 2.426 0.004 3.37 -0.123 1.009 -0.137 2.083 -0.459 2.966 -1.348l-1.547 -1.538 -1.548 -1.538c0.062 -0.062 0.063 0.029 -0.456 0.099 -0.583 0.079 -1.401 0.084 -2.786 0.084zm0 -24v2.181c1.384 0 2.202 0.005 2.786 0.084 0.519 0.07 0.517 0.161 0.454 0.099L18.816 0.827 20.362 -0.711c-0.883 -0.889 -1.957 -1.212 -2.966 -1.348 -0.944 -0.128 -2.11 -0.123 -3.37 -0.123zm5.61 5.647h2.182c0 -1.269 0.004 -2.44 -0.123 -3.387 -0.135 -1.009 -0.453 -2.084 -1.334 -2.971L18.815 0.827l-1.548 1.538c-0.06 -0.06 0.033 -0.057 0.104 0.473 0.079 0.591 0.084 1.417 0.084 2.809zM5.61 0v-2.181c-1.26 0 -2.426 -0.005 -3.37 0.123 -1.008 0.137 -2.083 0.459 -2.966 1.348L0.822 0.827l1.547 1.538c-0.061 0.062 -0.063 -0.029 0.456 -0.099 0.583 -0.079 1.401 -0.084 2.786 -0.084zM0 5.647h2.181c0 -1.392 0.005 -2.218 0.084 -2.809 0.07 -0.53 0.163 -0.533 0.104 -0.473L0.823 0.827 -0.726 -0.711c-0.881 0.887 -1.2 1.963 -1.334 2.971 -0.127 0.946 -0.122 2.117 -0.122 3.387z" fill="currentColor" mask="url(#path-1-inside-1_1349_2927)"/></svg>