<svg width="24" height="19.2" viewBox="0 0 24 19.2" fill="none" xmlns="http://www.w3.org/2000/svg"><path d="M9.866 17.282c0 0.986 -1.158 1.652 -2.008 0.966L0 11.904l7.858 -6.342 0.082 -0.06c0.84 -0.583 1.926 0.071 1.926 1.026v1.706h6.171v2.046l4.533 -3.658 -4.534 -3.658v2.046h-5.143V2.954h3.086V1.247c0 -0.955 1.086 -1.61 1.927 -1.026l0.08 0.06 7.859 6.343 -7.858 6.342c-0.85 0.686 -2.008 0.021 -2.008 -0.966v-1.706H7.809v-2.046l-4.534 3.659 4.534 3.658v-2.046h5.143v2.057h-3.086z" fill="currentColor"/></svg>