<svg width="37.881" height="47.001" viewBox="0 0 37.881 47.001" fill="none" xmlns="http://www.w3.org/2000/svg"><path d="M0 24.202 4.209 28.06v14.03a0.702 0.702 0 0 0 0.702 0.702h28.06a0.702 0.702 0 0 0 0.702 -0.702V28.762l4.209 -4.384V42.09a4.91 4.91 0 0 1 -4.658 4.904L32.971 47.001H4.91a4.91 4.91 0 0 1 -4.91 -4.91zM33.223 0.006a4.91 4.91 0 0 1 4.652 4.651L37.881 4.91v6.314l-4.209 5.359V4.91a0.702 0.702 0 0 0 -0.702 -0.702H4.91a0.702 0.702 0 0 0 -0.702 0.702v12.433L0 12.627V4.91a4.91 4.91 0 0 1 4.91 -4.91h28.06z" fill="#00FFAE"/><path d="m13.623 15.982 -5.144 6.172L0 12.627V6.314l8.357 9.413 5.379 -6.455 4.854 6.241 4.756 -6.114 6.08 6.438L37.881 6.314v6.314L29.5 22.045l-5.844 -6.189 -5.066 6.513z" fill="#00FFAE"/><path d="m13.623 30.092 -5.144 6.171L0 26.737v-6.314l8.357 9.413 5.379 -6.455 4.854 6.242 4.756 -6.115 6.08 6.438L37.881 20.423v6.314L29.5 36.155l-5.844 -6.189L18.59 36.478z" fill="#00FFAE"/></svg>