<svg width="38" height="47" viewBox="0 0 38 47" fill="none" xmlns="http://www.w3.org/2000/svg">
<path d="M4.74956 4.69965V42.3003H33.2487V4.69965H4.74956ZM38 42.3003C37.9998 44.8959 35.8718 47 33.2487 47H4.74956C2.12648 46.9999 0.000237432 44.8958 0 42.3003V4.69965C9.8183e-05 2.10405 2.12639 9.73929e-05 4.74956 0H33.2487C35.8719 0 37.9999 2.10399 38 4.69965V42.3003Z" fill="#00FFAE"/>
<path d="M37.4789 3.81825L28.6928 14.686C27.7915 15.8007 26.4263 16.4503 24.9836 16.4505H13.0164C11.5735 16.4505 10.2086 15.8008 9.30724 14.686L0.521078 3.81825L4.22848 0.881402L13.0164 11.7491H24.9836L33.7698 0.881402L37.4789 3.81825Z" fill="#00FFAE"/>
<path d="M37.4789 43.1815L28.6928 32.3138C27.7915 31.1991 26.4263 30.5495 24.9836 30.5493H13.0164C11.5735 30.5493 10.2086 31.199 9.30724 32.3138L0.521078 43.1815L4.22848 46.1184L13.0164 35.2507H24.9836L33.7698 46.1184L37.4789 43.1815Z" fill="#00FFAE"/>
<path d="M16.6248 32.8995V25.85C16.6248 24.5522 17.6879 23.5002 18.9996 23.5002C20.3112 23.5002 21.3743 24.5522 21.3743 25.85V32.8995C21.3743 34.1974 20.3112 35.2493 18.9996 35.2493C17.6879 35.2493 16.6248 34.1974 16.6248 32.8995Z" fill="#00FFAE"/>
</svg>
