<svg width="18" height="18" viewBox="0 0 18 18" fill="none" xmlns="http://www.w3.org/2000/svg">
<path d="M15.8149 5.01042C15.8149 4.67095 15.6101 4.38089 15.2003 3.94986L14.7223 3.46547L14.5345 3.27768C13.8063 2.54942 13.4421 2.18512 12.9896 2.18512C12.5371 2.18512 12.1729 2.54942 11.4446 3.27768L3.58438 11.1379L3.33578 11.3929C3.27354 11.4622 3.22938 11.5215 3.19281 11.5861C3.11966 11.7153 3.0822 11.861 3.0093 12.1526L2.28483 15.0526L2.22188 15.3129C2.17146 15.5402 2.16436 15.6715 2.24642 15.7536C2.32849 15.8356 2.45984 15.8285 2.68708 15.7781L2.94741 15.7152L5.84739 14.9907C6.13902 14.9178 6.28474 14.8803 6.41395 14.8072C6.47848 14.7706 6.53782 14.7265 6.60707 14.6642L6.86207 14.4156L14.7223 6.55537C15.4049 5.87281 15.7678 5.5101 15.8106 5.09471L15.8149 5.01042ZM18 5.01042C18 5.90638 17.6091 6.57151 17.2787 7.00455C16.9869 7.3871 16.5877 7.77984 16.2673 8.10031L8.40702 15.9606C8.27629 16.0913 7.93737 16.4566 7.4905 16.7096C7.04355 16.9626 6.55581 17.0649 6.3766 17.1097L3.57478 17.8107L3.57265 17.8117L3.47769 17.8352C3.3518 17.8667 3.01528 17.9561 2.70308 17.9867C2.36371 18.0199 1.45262 18.0497 0.701475 17.2985C-0.0496726 16.5474 -0.0199091 15.6363 0.0132897 15.2969C0.0438979 14.9847 0.133324 14.6482 0.164797 14.5223L0.890326 11.6234L1.01196 11.1667C1.07495 10.9667 1.16391 10.733 1.29043 10.5095L1.39073 10.3473C1.63181 9.98131 1.92504 9.70736 2.03944 9.59298L9.89969 1.73273C10.2202 1.41225 10.6129 1.01313 10.9954 0.721261C11.4285 0.390908 12.0936 0 12.9896 0L13.155 0.00426782C13.9679 0.0483953 14.5778 0.411564 14.9837 0.721261C15.3663 1.01313 15.759 1.41225 16.0795 1.73273L16.2673 1.92052C16.5877 2.24099 16.9869 2.63374 17.2787 3.01628C17.6091 3.44932 18 4.11445 18 5.01042Z" fill="currentColor"/>
<path d="M10.2582 3.37157L13.5359 1.18645L16.8135 4.46414L14.6284 7.74182L10.2582 3.37157Z" fill="currentColor"/>
</svg>
