<svg width="24" height="26.77" viewBox="0 0 24 26.77" fill="none" xmlns="http://www.w3.org/2000/svg"><path d="M20.924 11.615c0 -0.909 -0.003 -1.452 -0.056 -1.84a1.338 1.338 0 0 0 -0.069 -0.308l-0.009 -0.019 -0.002 -0.004 -0.003 -0.002 -0.019 -0.009a1.338 1.338 0 0 0 -0.309 -0.067c-0.388 -0.052 -0.932 -0.056 -1.84 -0.056H5.077c-0.909 0 -1.453 0.003 -1.842 0.056 -0.178 0.025 -0.268 0.052 -0.308 0.069l-0.019 0.009 -0.006 0.002v-0.002l-0.002 0.006 -0.009 0.019a1.338 1.338 0 0 0 -0.068 0.309c-0.052 0.388 -0.056 0.932 -0.056 1.84v5.922c0 1.78 0.002 2.975 0.123 3.868 0.115 0.851 0.313 1.216 0.554 1.457s0.605 0.438 1.457 0.554c0.891 0.12 2.087 0.122 3.867 0.122h6.154c1.78 0 2.975 -0.002 3.866 -0.123 0.852 -0.115 1.218 -0.313 1.459 -0.554s0.437 -0.605 0.552 -1.457c0.12 -0.891 0.124 -2.087 0.124 -3.867zM6.538 15.768v-2.614a1.384 1.384 0 0 1 2.77 0v2.616a1.384 1.384 0 1 1 -2.77 0m7.846 0v-2.616a1.384 1.384 0 0 1 2.77 0v2.616a1.384 1.384 0 0 1 -2.77 0M11.846 2.77a3.845 3.845 0 0 0 -3.844 3.769h7.69a3.848 3.848 0 0 0 -3.847 -3.769M23.691 17.539c0 1.701 0.002 3.116 -0.147 4.236 -0.156 1.159 -0.499 2.205 -1.34 3.046s-1.887 1.183 -3.046 1.338c-1.119 0.152 -2.535 0.148 -4.236 0.148H8.769c-1.701 0 -3.116 0.002 -4.236 -0.147 -1.159 -0.156 -2.205 -0.499 -3.046 -1.34s-1.183 -1.887 -1.338 -3.046C-0.003 20.655 0 19.239 0 17.539v-5.924c0 -0.831 -0.002 -1.594 0.08 -2.211 0.088 -0.656 0.296 -1.35 0.866 -1.92s1.265 -0.777 1.92 -0.866c0.617 -0.083 1.38 -0.08 2.211 -0.08h0.156a6.614 6.614 0 0 1 13.227 0h0.155c0.831 0 1.594 -0.002 2.21 0.08 0.656 0.088 1.351 0.296 1.92 0.866 0.571 0.57 0.779 1.265 0.868 1.92 0.083 0.617 0.079 1.38 0.079 2.211z" fill="currentColor"/></svg>