<svg width="21.517" height="24" viewBox="0 0 21.517 24" fill="none" xmlns="http://www.w3.org/2000/svg"><path d="M18.759 10.413c0 -0.815 -0.003 -1.302 -0.05 -1.65a1.166 1.166 0 0 0 -0.062 -0.276l-0.008 -0.017 -0.002 -0.004 -0.003 -0.002 -0.017 -0.008a1.166 1.166 0 0 0 -0.277 -0.06c-0.348 -0.047 -0.836 -0.05 -1.65 -0.05H4.552c-0.815 0 -1.303 0.003 -1.651 0.05a1.166 1.166 0 0 0 -0.276 0.062l-0.017 0.008 -0.005 0.002v-0.002L2.6 8.472l-0.008 0.017a1.166 1.166 0 0 0 -0.061 0.277c-0.047 0.348 -0.05 0.836 -0.05 1.65v5.309c0 1.596 0.002 2.667 0.11 3.468 0.103 0.763 0.281 1.09 0.497 1.306s0.542 0.393 1.306 0.497c0.799 0.108 1.871 0.109 3.467 0.109h5.517c1.596 0 2.667 -0.002 3.466 -0.11 0.764 -0.103 1.092 -0.281 1.308 -0.497s0.392 -0.542 0.495 -1.306c0.108 -0.799 0.111 -1.871 0.111 -3.467zM5.862 14.137v-2.344a1.241 1.241 0 0 1 2.483 0v2.345a1.241 1.241 0 1 1 -2.483 0m7.034 0v-2.345a1.241 1.241 0 0 1 2.483 0v2.345a1.241 1.241 0 0 1 -2.483 0m-2.275 -11.655a3.447 3.447 0 0 0 -3.446 3.379h6.894a3.452 3.452 0 0 0 -3.449 -3.379m10.62 13.241c0 1.525 0.002 2.794 -0.132 3.798 -0.14 1.039 -0.447 1.977 -1.201 2.731s-1.692 1.061 -2.731 1.2c-1.003 0.136 -2.273 0.133 -3.798 0.133H7.862c-1.525 0 -2.794 0.002 -3.798 -0.132 -1.039 -0.14 -1.977 -0.447 -2.731 -1.201S0.273 20.56 0.134 19.521C-0.003 18.518 0 17.249 0 15.724v-5.311c0 -0.745 -0.002 -1.429 0.072 -1.982 0.079 -0.588 0.265 -1.21 0.776 -1.721s1.134 -0.697 1.721 -0.776c0.553 -0.074 1.237 -0.072 1.982 -0.072h0.14a5.93 5.93 0 0 1 11.859 0h0.139c0.745 0 1.429 -0.002 1.981 0.072 0.588 0.079 1.211 0.265 1.721 0.776 0.512 0.511 0.698 1.134 0.778 1.721 0.074 0.553 0.071 1.237 0.071 1.982z" fill="currentColor"/></svg>