<svg width="24" height="24.8" viewBox="0 0 24 24.8" fill="none" xmlns="http://www.w3.org/2000/svg"><path d="m13.763 2.581 0.487 -0.634zm0.097 0.087 0.584 -0.548zm0.277 1.109 -0.796 0.08zm0.536 1.939 -0.392 0.697zm0.176 0.072 -0.217 0.771zm1.75 -0.992 -0.506 -0.618zm0.982 -0.588 -0.024 -0.8h-0.001zm0.128 0.006 0.105 -0.793h-0.001zm0.917 0.683 0.565 -0.565zm0.894 0.894 0.566 -0.565zm0.683 0.917 0.793 -0.104zm0.006 0.129 0.8 0.025zm-0.589 0.98 0.619 0.507zm-0.991 1.75 -0.771 0.216zm0.072 0.176 -0.697 0.392zm1.939 0.536 -0.08 0.796zm1.11 0.278 0.548 -0.583zm0.087 0.096 0.634 -0.488zm0.165 1.13h0.8zm0 1.264h0.8zm-0.165 1.131 0.634 0.488zm-0.087 0.096 0.548 0.584zm-1.11 0.277 -0.08 -0.796zm-1.937 0.536 -0.697 -0.392zm-0.073 0.176 -0.771 -0.216zm0.992 1.749 -0.619 0.507zm0.588 0.98 0.8 -0.026zm-0.006 0.129 0.793 0.104zm-0.683 0.917 0.566 0.565zm-0.894 0.894 -0.565 -0.565zm-0.916 0.683 0.104 0.794zm-0.129 0.006 -0.026 0.8zm-0.981 -0.588 0.506 -0.619zm-1.749 -0.992 -0.217 -0.77zm-0.176 0.072 -0.392 -0.697zm-0.536 1.939 -0.796 -0.08zm-0.277 1.11 0.583 0.548zm-0.096 0.087 0.487 0.635zm-2.395 0.165v0.8zm-1.131 -0.165 -0.488 0.634h0.001zm-0.096 -0.087 -0.583 0.548zm-0.278 -1.11 0.796 -0.08zm-0.536 -1.939 0.392 -0.696zm-0.176 -0.072 0.216 -0.771zm-1.749 0.991 0.506 0.619zm-0.98 0.588 0.026 0.8zm-0.129 -0.006 -0.104 0.794zm-0.916 -0.682 -0.565 0.565zm-0.897 -0.892 -0.566 0.565zm-0.683 -0.917 -0.793 0.104zm-0.006 -0.129 -0.8 -0.025zm0.589 -0.982 -0.619 -0.506zM5.373 15.262l0.771 -0.216v-0.001zm-0.072 -0.176 0.697 -0.392zm-1.939 -0.536 0.08 -0.796zm-1.11 -0.277 -0.548 0.584zm-0.087 -0.096 -0.634 0.487zm-0.166 -2.393h-0.8zm0.165 -1.131 -0.634 -0.487zm0.087 -0.096 -0.548 -0.584v0.001zm1.11 -0.278 0.08 0.796zm1.939 -0.536 0.697 0.392zm0.072 -0.176 0.771 0.217zm-0.99 -1.748 -0.619 0.506zm-0.59 -0.98 -0.8 0.024v0.001zm0.006 -0.129 -0.793 -0.104zm0.683 -0.917 -0.566 -0.565zm0.895 -0.895 0.565 0.565zm0.916 -0.684 -0.104 -0.793zm0.129 -0.005 0.026 -0.8zm0.981 0.588 -0.506 0.619zm1.749 0.992 0.216 0.77zm0.176 -0.073 0.392 0.697zm0.536 -1.939 -0.797 -0.08zm0.277 -1.108 -0.583 -0.548zm0.096 -0.087 -0.487 -0.634zm1.764 5.834v-0.8zm-4 4h-0.8zm4 4v0.8zm4 -4h0.8zm-3.368 -10.001v0.8c0.323 0 0.498 0.002 0.622 0.015 0.104 0.012 0.073 0.024 0.022 -0.015l0.488 -0.634 0.487 -0.634a1.591 1.591 0 0 0 -0.813 -0.305c-0.236 -0.027 -0.519 -0.027 -0.806 -0.027zm1.13 0.165 -0.487 0.635h0.001l0.584 -0.548 0.583 -0.548a2.067 2.067 0 0 0 -0.193 -0.174zm0.097 0.087 -0.583 0.548c-0.044 -0.048 -0.036 -0.08 -0.013 0.024 0.027 0.121 0.045 0.296 0.077 0.618l0.796 -0.08 0.796 -0.08a7.233 7.233 0 0 0 -0.105 -0.799 1.591 1.591 0 0 0 -0.384 -0.779zm0.277 1.109 -0.796 0.08c0.055 0.555 0.103 1.052 0.192 1.43 0.089 0.376 0.265 0.855 0.748 1.125l0.392 -0.697 0.392 -0.697c0.12 0.068 0.086 0.156 0.026 -0.097 -0.059 -0.25 -0.097 -0.62 -0.158 -1.222zm0.536 1.939 -0.392 0.697q0.164 0.094 0.35 0.146l0.216 -0.771 0.218 -0.77zm0.176 0.072 -0.216 0.771c0.533 0.15 0.996 -0.064 1.324 -0.268 0.332 -0.205 0.717 -0.523 1.149 -0.875l-0.506 -0.619 -0.506 -0.619c-0.469 0.383 -0.757 0.617 -0.976 0.752 -0.222 0.137 -0.184 0.052 -0.052 0.088zm1.75 -0.992 0.506 0.62a6.2 6.2 0 0 1 0.492 -0.382c0.088 -0.056 0.072 -0.028 0.008 -0.026l-0.025 -0.8 -0.025 -0.8a1.591 1.591 0 0 0 -0.823 0.28c-0.2 0.128 -0.418 0.308 -0.641 0.49zm0.982 -0.588 0.024 0.8 0.104 -0.794 0.104 -0.793a2.067 2.067 0 0 0 -0.257 -0.012zm0.128 0.006 -0.104 0.794c-0.065 -0.009 -0.079 -0.04 0.005 0.027 0.097 0.076 0.221 0.2 0.451 0.429l0.565 -0.565 0.565 -0.565c-0.203 -0.203 -0.402 -0.403 -0.587 -0.551a1.591 1.591 0 0 0 -0.789 -0.36zm0.917 0.683 -0.565 0.565 0.894 0.894 0.565 -0.565 0.566 -0.565 -0.895 -0.894zm0.894 0.894 -0.565 0.565c0.229 0.228 0.352 0.353 0.43 0.452 0.065 0.083 0.034 0.069 0.026 0.004l0.794 -0.104 0.793 -0.104a1.591 1.591 0 0 0 -0.36 -0.79c-0.147 -0.186 -0.348 -0.384 -0.551 -0.587zm0.683 0.917 -0.794 0.104 0.8 0.026 0.8 0.025a2.067 2.067 0 0 0 -0.013 -0.259zm0.006 0.129 -0.8 -0.026c0.002 -0.065 0.032 -0.082 -0.026 0.007a6.2 6.2 0 0 1 -0.381 0.491l0.618 0.506 0.619 0.507c0.182 -0.221 0.362 -0.44 0.491 -0.64a1.591 1.591 0 0 0 0.278 -0.821zm-0.589 0.98 -0.618 -0.506c-0.353 0.431 -0.672 0.816 -0.876 1.148 -0.203 0.328 -0.416 0.792 -0.268 1.325l0.771 -0.216 0.771 -0.216c0.037 0.132 -0.05 0.17 0.088 -0.052 0.135 -0.218 0.369 -0.507 0.752 -0.976zm-0.991 1.75 -0.771 0.216q0.052 0.184 0.146 0.351l0.697 -0.392 0.697 -0.392zm0.072 0.176 -0.697 0.392c0.272 0.483 0.751 0.658 1.125 0.746 0.379 0.09 0.877 0.137 1.43 0.193l0.08 -0.796 0.08 -0.796c-0.602 -0.06 -0.972 -0.098 -1.222 -0.158 -0.254 -0.06 -0.166 -0.094 -0.098 0.026zm1.939 0.536 -0.08 0.796c0.322 0.032 0.496 0.052 0.617 0.077 0.104 0.023 0.072 0.032 0.024 -0.012l0.549 -0.583 0.548 -0.583a1.591 1.591 0 0 0 -0.778 -0.384c-0.232 -0.052 -0.514 -0.079 -0.8 -0.107zm1.11 0.278 -0.548 0.583 0.634 -0.488 0.634 -0.487a2.067 2.067 0 0 0 -0.173 -0.191zm0.087 0.096 -0.634 0.487c-0.04 -0.052 -0.028 -0.083 -0.015 0.023 0.014 0.123 0.015 0.298 0.015 0.622h1.6c0 -0.286 0.002 -0.569 -0.027 -0.806a1.602 1.602 0 0 0 -0.304 -0.813zm0.165 1.13h-0.8v1.264h1.6v-1.264zm0 1.264h-0.8c0 0.324 -0.002 0.499 -0.015 0.622 -0.012 0.104 -0.024 0.074 0.015 0.023l0.634 0.487 0.634 0.488c0.206 -0.268 0.276 -0.559 0.305 -0.813 0.027 -0.236 0.027 -0.519 0.027 -0.806zm-0.165 1.131 -0.634 -0.487 0.548 0.584 0.548 0.583q0.097 -0.092 0.174 -0.192zm-0.087 0.096 -0.548 -0.583c0.048 -0.044 0.08 -0.035 -0.023 -0.012a6.2 6.2 0 0 1 -0.618 0.076l0.08 0.796 0.08 0.796c0.284 -0.028 0.565 -0.055 0.798 -0.105 0.25 -0.055 0.533 -0.152 0.779 -0.384zm-1.11 0.277 -0.08 -0.796c-0.554 0.056 -1.051 0.104 -1.43 0.193 -0.375 0.088 -0.854 0.265 -1.125 0.747l0.697 0.392 0.697 0.392c-0.067 0.12 -0.155 0.086 0.098 0.026 0.25 -0.059 0.619 -0.098 1.22 -0.158zm-1.937 0.536 -0.697 -0.392a1.653 1.653 0 0 0 -0.147 0.35l0.771 0.216 0.771 0.217q-0.004 0.011 0 0zm-0.073 0.176 -0.771 -0.216c-0.15 0.533 0.065 0.997 0.268 1.325 0.205 0.331 0.523 0.717 0.876 1.148l0.618 -0.507 0.619 -0.506c-0.382 -0.468 -0.617 -0.756 -0.752 -0.976 -0.137 -0.221 -0.051 -0.184 -0.088 -0.052zm0.992 1.749 -0.619 0.507c0.205 0.25 0.314 0.386 0.381 0.491 0.057 0.088 0.028 0.072 0.026 0.006l0.8 -0.025 0.8 -0.026a1.602 1.602 0 0 0 -0.28 -0.821c-0.128 -0.2 -0.308 -0.417 -0.49 -0.64zm0.588 0.98 -0.8 0.025 0.794 0.104 0.793 0.104q0.018 -0.132 0.012 -0.258zm-0.006 0.129 -0.794 -0.104c0.009 -0.065 0.04 -0.08 -0.026 0.004a6.2 6.2 0 0 1 -0.43 0.452l0.565 0.565 0.566 0.565c0.203 -0.203 0.403 -0.402 0.551 -0.588 0.159 -0.2 0.315 -0.456 0.36 -0.789zm-0.683 0.917 -0.565 -0.565 -0.894 0.894 0.565 0.565 0.565 0.565 0.895 -0.894zm-0.894 0.894 -0.565 -0.565a6.2 6.2 0 0 1 -0.452 0.43c-0.084 0.065 -0.069 0.035 -0.004 0.027l0.104 0.793 0.104 0.794c0.336 -0.044 0.591 -0.201 0.792 -0.36 0.186 -0.148 0.384 -0.349 0.586 -0.552zm-0.916 0.683 -0.104 -0.793h-0.001l-0.025 0.8 -0.025 0.799q0.126 0.004 0.258 -0.012zm-0.129 0.006 0.025 -0.8c0.065 0.002 0.081 0.032 -0.008 -0.026a6.2 6.2 0 0 1 -0.491 -0.381l-0.506 0.619 -0.506 0.619c0.221 0.181 0.44 0.362 0.64 0.49 0.215 0.138 0.485 0.268 0.821 0.279zm-0.981 -0.588 0.506 -0.619c-0.431 -0.352 -0.816 -0.672 -1.148 -0.875 -0.328 -0.204 -0.792 -0.417 -1.325 -0.268l0.216 0.77 0.217 0.771c-0.133 0.037 -0.17 -0.049 0.052 0.088 0.218 0.135 0.507 0.37 0.976 0.752zm-1.749 -0.992 -0.217 -0.77q-0.185 0.052 -0.35 0.145l0.392 0.697 0.392 0.697zm-0.176 0.072 -0.392 -0.697c-0.483 0.272 -0.659 0.75 -0.748 1.125 -0.09 0.379 -0.137 0.877 -0.193 1.431l0.796 0.08 0.796 0.08c0.06 -0.602 0.099 -0.972 0.158 -1.222 0.06 -0.253 0.094 -0.165 -0.027 -0.098zm-0.536 1.939 -0.796 -0.08c-0.032 0.323 -0.052 0.498 -0.077 0.618 -0.023 0.104 -0.032 0.072 0.013 0.024l0.584 0.548 0.583 0.548c0.232 -0.246 0.33 -0.529 0.384 -0.779 0.051 -0.232 0.076 -0.514 0.105 -0.798zm-0.277 1.11 -0.583 -0.548 0.488 0.634 0.487 0.634q0.1 -0.076 0.192 -0.173zm-0.096 0.087 -0.487 -0.634c0.053 -0.04 0.084 -0.027 -0.023 -0.015 -0.123 0.015 -0.299 0.015 -0.622 0.015v1.6c0.286 0 0.569 0.002 0.806 -0.026 0.254 -0.03 0.546 -0.1 0.813 -0.305zm-1.131 0.165v-0.8h-1.267v1.6h1.264zm-1.263 0v-0.8c-0.324 0 -0.499 -0.001 -0.622 -0.015 -0.104 -0.011 -0.073 -0.024 -0.022 0.015l-0.488 0.634 -0.487 0.634c0.268 0.206 0.558 0.276 0.813 0.306 0.236 0.027 0.519 0.026 0.806 0.026zm-1.131 -0.165 0.487 -0.634 -0.583 0.548 -0.583 0.548a2.067 2.067 0 0 0 0.191 0.173zm-0.096 -0.087 0.584 -0.548c0.044 0.048 0.034 0.079 0.012 -0.024a6.2 6.2 0 0 1 -0.077 -0.617l-0.796 0.08 -0.796 0.08c0.029 0.285 0.056 0.567 0.106 0.8 0.055 0.25 0.154 0.532 0.384 0.778zm-0.278 -1.11 0.796 -0.08c-0.056 -0.554 -0.104 -1.051 -0.192 -1.429 -0.089 -0.375 -0.265 -0.855 -0.747 -1.125l-0.392 0.696 -0.393 0.697c-0.12 -0.068 -0.086 -0.156 -0.027 0.098 0.059 0.25 0.098 0.62 0.158 1.222zm-0.536 -1.939 0.392 -0.697a1.653 1.653 0 0 0 -0.352 -0.145l-0.216 0.77 -0.216 0.771zm-0.176 -0.072 0.216 -0.771c-0.533 -0.15 -0.996 0.064 -1.324 0.268 -0.332 0.204 -0.717 0.523 -1.148 0.875l0.506 0.619 0.506 0.619c0.468 -0.384 0.757 -0.618 0.976 -0.752 0.221 -0.137 0.184 -0.052 0.052 -0.088zm-1.749 0.991 -0.506 -0.619a6.2 6.2 0 0 1 -0.491 0.381c-0.089 0.058 -0.072 0.028 -0.008 0.027l0.026 0.8 0.026 0.799c0.337 -0.011 0.607 -0.141 0.821 -0.28 0.2 -0.128 0.417 -0.308 0.64 -0.489zm-0.98 0.588 -0.025 -0.8 -0.104 0.794 -0.104 0.794q0.133 0.015 0.259 0.012zm-0.129 -0.006 0.104 -0.793c0.065 0.008 0.08 0.039 -0.004 -0.027a6.2 6.2 0 0 1 -0.451 -0.429l-0.565 0.565 -0.565 0.565c0.203 0.203 0.401 0.403 0.587 0.551 0.2 0.16 0.456 0.316 0.79 0.36zm-0.916 -0.682 0.565 -0.565 -0.894 -0.895 -0.565 0.565 -0.566 0.566 0.895 0.894zm-0.898 -0.892 0.565 -0.566a6.2 6.2 0 0 1 -0.43 -0.451c-0.065 -0.084 -0.034 -0.069 -0.027 -0.005l-0.793 0.104 -0.793 0.104c0.044 0.335 0.2 0.59 0.36 0.79 0.147 0.186 0.348 0.385 0.551 0.588zm-0.683 -0.917 0.794 -0.104 -0.8 -0.025 -0.8 -0.024q-0.003 0.126 0.013 0.257zm-0.006 -0.129 0.8 0.024c-0.002 0.065 -0.032 0.082 0.026 -0.008 0.067 -0.104 0.177 -0.24 0.382 -0.491l-0.619 -0.507 -0.619 -0.506c-0.183 0.222 -0.363 0.44 -0.491 0.641 -0.138 0.216 -0.268 0.486 -0.278 0.823zm0.589 -0.982 0.619 0.507c0.352 -0.432 0.671 -0.817 0.875 -1.149 0.203 -0.328 0.416 -0.792 0.268 -1.326l-0.771 0.216 -0.771 0.217c-0.037 -0.132 0.05 -0.17 -0.088 0.052 -0.135 0.218 -0.369 0.508 -0.752 0.976zM5.373 15.262l0.77 -0.217a1.653 1.653 0 0 0 -0.145 -0.35l-0.697 0.392 -0.697 0.392zm-0.072 -0.176 0.697 -0.392c-0.272 -0.483 -0.75 -0.658 -1.125 -0.747 -0.379 -0.09 -0.877 -0.137 -1.431 -0.192l-0.08 0.796 -0.08 0.796c0.602 0.06 0.972 0.099 1.222 0.158 0.254 0.06 0.165 0.094 0.098 -0.026zm-1.939 -0.536 0.08 -0.796a6.2 6.2 0 0 1 -0.618 -0.076c-0.104 -0.023 -0.072 -0.032 -0.024 0.012l-0.548 0.584 -0.548 0.583c0.246 0.23 0.529 0.329 0.779 0.384 0.232 0.05 0.514 0.076 0.799 0.104zm-1.11 -0.277 0.548 -0.583 -0.634 0.487 -0.634 0.488c0.048 0.061 0.104 0.128 0.174 0.192zm-0.087 -0.096 0.634 -0.488c0.04 0.053 0.028 0.084 0.015 -0.022a6.2 6.2 0 0 1 -0.015 -0.622H1.201c0 0.287 -0.001 0.569 0.027 0.806 0.029 0.254 0.099 0.546 0.304 0.813zm-0.166 -1.13h0.8v-1.263H1.2v1.264zm0 -1.263h0.8c0 -0.324 0.002 -0.498 0.015 -0.622 0.012 -0.104 0.024 -0.074 -0.015 -0.023l-0.634 -0.487 -0.634 -0.487c-0.206 0.268 -0.276 0.558 -0.305 0.813 -0.027 0.236 -0.027 0.52 -0.027 0.806zm0.165 -1.131 0.634 0.488v-0.001l-0.548 -0.583 -0.548 -0.583q-0.097 0.092 -0.174 0.192zm0.087 -0.096 0.548 0.584c-0.048 0.044 -0.08 0.034 0.024 0.012a6.2 6.2 0 0 1 0.618 -0.077l-0.08 -0.796 -0.08 -0.796c-0.285 0.029 -0.566 0.056 -0.799 0.106a1.591 1.591 0 0 0 -0.778 0.384zm1.11 -0.278 0.08 0.796c0.555 -0.055 1.052 -0.104 1.43 -0.193 0.376 -0.088 0.855 -0.265 1.125 -0.748l-0.697 -0.392 -0.697 -0.392c0.067 -0.12 0.156 -0.086 -0.098 -0.026 -0.25 0.059 -0.62 0.097 -1.221 0.158zm1.939 -0.536 0.697 0.392q0.093 -0.164 0.146 -0.35l-0.771 -0.216 -0.771 -0.216zm0.072 -0.176 0.771 0.216c0.15 -0.533 -0.065 -0.996 -0.268 -1.324 -0.204 -0.332 -0.523 -0.717 -0.874 -1.148l-0.619 0.506 -0.619 0.506c0.382 0.469 0.617 0.757 0.752 0.976 0.137 0.222 0.052 0.184 0.088 0.052zm-0.99 -1.748 0.619 -0.506a6.2 6.2 0 0 1 -0.382 -0.491c-0.057 -0.089 -0.028 -0.072 -0.026 -0.008l-0.8 0.027 -0.8 0.025c0.011 0.338 0.142 0.608 0.28 0.821 0.128 0.2 0.308 0.418 0.49 0.64zm-0.59 -0.98 0.8 -0.026 -0.794 -0.104 -0.793 -0.104q-0.018 0.132 -0.012 0.258zm0.006 -0.129 0.793 0.104c-0.008 0.065 -0.039 0.079 0.027 -0.004a7.233 7.233 0 0 1 0.43 -0.452l-0.565 -0.565 -0.566 -0.565c-0.203 0.203 -0.403 0.402 -0.551 0.587a1.591 1.591 0 0 0 -0.36 0.79zm0.683 -0.917 0.565 0.565 0.895 -0.894 -0.565 -0.565 -0.565 -0.565 -0.895 0.894zm0.895 -0.895 0.565 0.565c0.229 -0.229 0.353 -0.352 0.452 -0.43 0.084 -0.066 0.069 -0.035 0.004 -0.027l-0.104 -0.794 -0.105 -0.793a1.591 1.591 0 0 0 -0.79 0.36c-0.186 0.148 -0.384 0.349 -0.586 0.551zm0.916 -0.684 0.104 0.794h0.001l0.025 -0.8 0.026 -0.799a2.067 2.067 0 0 0 -0.259 0.012zm0.129 -0.005 -0.025 0.799c-0.065 -0.002 -0.082 -0.031 0.008 0.026 0.104 0.067 0.24 0.177 0.491 0.382l0.506 -0.619 0.506 -0.619a7.233 7.233 0 0 0 -0.64 -0.491 1.591 1.591 0 0 0 -0.821 -0.278zm0.981 0.588 -0.506 0.619c0.431 0.352 0.816 0.671 1.147 0.875 0.328 0.203 0.792 0.416 1.325 0.268l-0.216 -0.771 -0.216 -0.771c0.132 -0.037 0.17 0.05 -0.052 -0.088 -0.219 -0.135 -0.508 -0.369 -0.976 -0.752zm1.749 0.992 0.216 0.77q0.183 -0.052 0.351 -0.146l-0.392 -0.697 -0.392 -0.697zm0.176 -0.073 0.392 0.697c0.483 -0.272 0.658 -0.751 0.746 -1.125 0.09 -0.379 0.137 -0.877 0.193 -1.43l-0.796 -0.08 -0.796 -0.08c-0.06 0.602 -0.099 0.972 -0.158 1.223 -0.06 0.254 -0.094 0.165 0.026 0.097zm0.536 -1.939 0.796 0.08c0.032 -0.321 0.052 -0.496 0.077 -0.617 0.023 -0.103 0.032 -0.072 -0.012 -0.024l-0.584 -0.548 -0.583 -0.548a1.602 1.602 0 0 0 -0.384 0.778c-0.051 0.232 -0.077 0.513 -0.106 0.799zm0.277 -1.108 0.583 0.548 -0.488 -0.634 -0.487 -0.634a2.067 2.067 0 0 0 -0.192 0.174zm0.096 -0.087 0.487 0.635c-0.052 0.04 -0.084 0.027 0.022 0.015A6.2 6.2 0 0 1 11.367 3.218V1.618c-0.286 0 -0.569 -0.001 -0.806 0.027a1.612 1.612 0 0 0 -0.813 0.304zm1.131 -0.165v0.8h1.264V1.617h-1.264zm0.632 5.999v-0.8a4.8 4.8 0 0 0 -4.8 4.8h1.6a3.2 3.2 0 0 1 3.2 -3.2zm-4 4h-0.8a4.8 4.8 0 0 0 4.8 4.8v-1.6a3.2 3.2 0 0 1 -3.2 -3.2zm4 4v0.8a4.8 4.8 0 0 0 4.8 -4.8H15.2a3.2 3.2 0 0 1 -3.2 3.2zm4 -4h0.8a4.8 4.8 0 0 0 -4.8 -4.8v1.6a3.2 3.2 0 0 1 3.2 3.2z" fill="currentColor"/></svg>