<svg width="23.226" height="24" viewBox="0 0 23.226 24" fill="none" xmlns="http://www.w3.org/2000/svg"><path d="m13.319 2.498 0.471 -0.614zm0.094 0.084 0.565 -0.53zm0.268 1.073 -0.77 0.077zm0.519 1.876 -0.379 0.675zm0.17 0.07 -0.21 0.746zm1.694 -0.96 -0.49 -0.598zm0.95 -0.569 -0.023 -0.774h-0.001zm0.124 0.006 0.102 -0.767h-0.001zm0.887 0.661 0.547 -0.547zm0.865 0.865 0.548 -0.547zm0.661 0.887 0.767 -0.101zm0.006 0.125 0.774 0.024zm-0.57 0.948 0.599 0.491zm-0.959 1.694 -0.746 0.209zm0.07 0.17 -0.675 0.379zm1.876 0.519 -0.077 0.77zm1.074 0.269 0.53 -0.564zm0.084 0.093 0.614 -0.472zm0.16 1.094h0.774zm0 1.223h0.774zm-0.16 1.095 0.614 0.472zm-0.084 0.093 0.53 0.565zm-1.074 0.268 -0.077 -0.77zm-1.875 0.519 -0.675 -0.379zm-0.071 0.17 -0.746 -0.209zm0.96 1.693 -0.599 0.491zm0.569 0.948 0.774 -0.025zm-0.006 0.125 0.767 0.101zm-0.661 0.887 0.548 0.547zm-0.865 0.865 -0.547 -0.547zm-0.886 0.661 0.101 0.768zm-0.125 0.006 -0.025 0.774zm-0.949 -0.569 0.49 -0.599zm-1.693 -0.96 -0.21 -0.745zm-0.17 0.07 -0.379 -0.675zm-0.519 1.876 -0.77 -0.077zm-0.268 1.074 0.564 0.53zm-0.093 0.084 0.471 0.615zm-2.318 0.16v0.774zm-1.095 -0.16 -0.472 0.614h0.001zm-0.093 -0.084 -0.564 0.53zm-0.269 -1.074 0.77 -0.077zm-0.519 -1.876 0.379 -0.674zm-0.17 -0.07 0.209 -0.746zm-1.693 0.959 0.49 0.599zm-0.948 0.569 0.025 0.774zm-0.125 -0.006 -0.101 0.768zm-0.886 -0.66 -0.547 0.547zm-0.868 -0.863 -0.548 0.547zm-0.661 -0.887 -0.767 0.101zm-0.006 -0.125 -0.774 -0.024zm0.57 -0.95 -0.599 -0.49zm0.957 -1.694 0.746 -0.209v-0.001zm-0.07 -0.17 0.675 -0.379zm-1.876 -0.519 0.077 -0.77zm-1.074 -0.268 -0.53 0.565zm-0.084 -0.093 -0.614 0.471zm-0.161 -2.316h-0.774zm0.16 -1.095 -0.614 -0.471zm0.084 -0.093 -0.53 -0.565v0.001zm1.074 -0.269 0.077 0.77zM5.129 9.429l0.675 0.379zm0.07 -0.17 0.746 0.21zm-0.958 -1.692 -0.599 0.49zm-0.571 -0.948 -0.774 0.023v0.001zm0.006 -0.125 -0.767 -0.101zm0.661 -0.887 -0.548 -0.547zm0.866 -0.866 0.547 0.547zm0.886 -0.662 -0.101 -0.767zm0.125 -0.005 0.025 -0.774zm0.949 0.569 -0.49 0.599zm1.693 0.96 0.209 0.745zm0.17 -0.071 0.379 0.675zm0.519 -1.876 -0.771 -0.077zm0.268 -1.072 -0.564 -0.53zm0.093 -0.084 -0.471 -0.614zM11.613 8.145v-0.774zm-3.871 3.871h-0.774zm3.871 3.871v0.774zm3.871 -3.871h0.774zM12.225 2.337v0.774c0.313 0 0.482 0.002 0.602 0.015 0.101 0.012 0.071 0.023 0.021 -0.015l0.472 -0.614 0.471 -0.614a1.548 1.548 0 0 0 -0.787 -0.295c-0.228 -0.026 -0.502 -0.026 -0.78 -0.026zm1.094 0.16 -0.471 0.615h0.001l0.565 -0.53 0.564 -0.53a1.935 1.935 0 0 0 -0.187 -0.168zm0.094 0.084 -0.564 0.53c-0.043 -0.046 -0.035 -0.077 -0.013 0.023 0.026 0.117 0.044 0.286 0.075 0.598l0.77 -0.077 0.77 -0.077a6.774 6.774 0 0 0 -0.102 -0.773 1.548 1.548 0 0 0 -0.372 -0.754zm0.268 1.073 -0.77 0.077c0.053 0.537 0.1 1.018 0.186 1.384 0.086 0.364 0.256 0.827 0.724 1.089l0.379 -0.675 0.379 -0.675c0.116 0.066 0.083 0.151 0.025 -0.094 -0.057 -0.242 -0.094 -0.6 -0.153 -1.183zm0.519 1.876 -0.379 0.675q0.159 0.091 0.339 0.141l0.209 -0.746 0.211 -0.745zm0.17 0.07 -0.209 0.746c0.516 0.145 0.964 -0.062 1.281 -0.259 0.321 -0.198 0.694 -0.506 1.112 -0.847l-0.49 -0.599 -0.49 -0.599c-0.454 0.371 -0.733 0.597 -0.945 0.728 -0.215 0.133 -0.178 0.05 -0.05 0.085zm1.694 -0.96 0.49 0.6a5.806 5.806 0 0 1 0.476 -0.37c0.085 -0.054 0.07 -0.027 0.008 -0.025l-0.024 -0.774 -0.024 -0.774a1.548 1.548 0 0 0 -0.796 0.271c-0.194 0.124 -0.405 0.298 -0.62 0.474zm0.95 -0.569 0.023 0.774 0.101 -0.768 0.101 -0.767a1.935 1.935 0 0 0 -0.249 -0.012zm0.124 0.006 -0.101 0.768c-0.063 -0.009 -0.076 -0.039 0.005 0.026 0.094 0.074 0.214 0.194 0.436 0.415l0.547 -0.547 0.547 -0.547c-0.196 -0.196 -0.389 -0.39 -0.568 -0.533a1.548 1.548 0 0 0 -0.764 -0.348zm0.887 0.661 -0.547 0.547 0.865 0.865 0.547 -0.547 0.548 -0.547 -0.866 -0.865zm0.865 0.865 -0.547 0.547c0.222 0.221 0.341 0.342 0.416 0.437 0.063 0.08 0.033 0.067 0.025 0.004l0.768 -0.101 0.767 -0.101a1.548 1.548 0 0 0 -0.348 -0.765c-0.142 -0.18 -0.337 -0.372 -0.533 -0.568zm0.661 0.887 -0.768 0.101 0.774 0.025 0.774 0.024a1.935 1.935 0 0 0 -0.013 -0.251zm0.006 0.125 -0.774 -0.025c0.002 -0.063 0.031 -0.079 -0.025 0.007a5.806 5.806 0 0 1 -0.369 0.475l0.598 0.49 0.599 0.491a6.774 6.774 0 0 0 0.475 -0.619 1.548 1.548 0 0 0 0.269 -0.795zm-0.57 0.948 -0.598 -0.49c-0.342 0.417 -0.65 0.79 -0.848 1.111 -0.196 0.317 -0.403 0.766 -0.259 1.282l0.746 -0.209 0.746 -0.209c0.036 0.128 -0.048 0.165 0.085 -0.05 0.131 -0.211 0.357 -0.491 0.728 -0.945zm-0.959 1.694 -0.746 0.209q0.05 0.178 0.141 0.34l0.675 -0.379 0.675 -0.379zm0.07 0.17 -0.675 0.379c0.263 0.467 0.727 0.637 1.089 0.722 0.367 0.087 0.849 0.133 1.384 0.187l0.077 -0.77 0.077 -0.77c-0.583 -0.058 -0.941 -0.095 -1.183 -0.153 -0.246 -0.058 -0.161 -0.091 -0.095 0.025zm1.876 0.519 -0.077 0.77c0.312 0.031 0.48 0.05 0.597 0.075 0.101 0.022 0.07 0.031 0.023 -0.012l0.531 -0.564 0.53 -0.564a1.548 1.548 0 0 0 -0.753 -0.372c-0.225 -0.05 -0.497 -0.076 -0.774 -0.104zm1.074 0.269 -0.53 0.564 0.614 -0.472 0.614 -0.471a1.935 1.935 0 0 0 -0.167 -0.185zm0.084 0.093 -0.614 0.471c-0.039 -0.05 -0.027 -0.08 -0.015 0.022 0.014 0.119 0.015 0.288 0.015 0.602h1.548c0 -0.277 0.002 -0.551 -0.026 -0.78a1.548 1.548 0 0 0 -0.294 -0.787zm0.16 1.094h-0.774v1.223h1.548v-1.223zm0 1.223h-0.774c0 0.314 -0.002 0.483 -0.015 0.602 -0.012 0.101 -0.023 0.072 0.015 0.022l0.614 0.471 0.614 0.472c0.199 -0.259 0.267 -0.541 0.295 -0.787 0.026 -0.228 0.026 -0.502 0.026 -0.78zm-0.16 1.095 -0.614 -0.471 0.53 0.565 0.53 0.564q0.094 -0.089 0.168 -0.186zm-0.084 0.093 -0.53 -0.564c0.046 -0.043 0.077 -0.034 -0.022 -0.012a5.806 5.806 0 0 1 -0.598 0.074l0.077 0.77 0.077 0.77c0.275 -0.027 0.547 -0.053 0.772 -0.102 0.242 -0.053 0.516 -0.147 0.754 -0.372zm-1.074 0.268 -0.077 -0.77c-0.536 0.054 -1.017 0.101 -1.384 0.187 -0.363 0.085 -0.826 0.256 -1.089 0.723l0.675 0.379 0.675 0.379c-0.065 0.116 -0.15 0.083 0.095 0.025 0.242 -0.057 0.599 -0.095 1.181 -0.153zm-1.875 0.519 -0.675 -0.379a1.645 1.645 0 0 0 -0.142 0.339l0.746 0.209 0.746 0.21q-0.004 0.011 0 0zm-0.071 0.17 -0.746 -0.209c-0.145 0.516 0.063 0.965 0.259 1.282 0.198 0.32 0.506 0.694 0.848 1.111l0.598 -0.491 0.599 -0.49c-0.37 -0.453 -0.597 -0.732 -0.728 -0.945 -0.133 -0.214 -0.049 -0.178 -0.085 -0.05zm0.96 1.693 -0.599 0.491c0.198 0.242 0.304 0.374 0.369 0.475 0.055 0.085 0.027 0.07 0.025 0.006l0.774 -0.024 0.774 -0.025a1.548 1.548 0 0 0 -0.271 -0.795c-0.124 -0.194 -0.298 -0.404 -0.474 -0.619zm0.569 0.948 -0.774 0.024 0.768 0.101 0.767 0.101q0.017 -0.128 0.012 -0.25zm-0.006 0.125 -0.768 -0.101c0.009 -0.063 0.039 -0.077 -0.025 0.004a5.806 5.806 0 0 1 -0.416 0.437l0.547 0.547 0.548 0.547c0.196 -0.196 0.39 -0.389 0.533 -0.569 0.154 -0.194 0.305 -0.441 0.348 -0.764zm-0.661 0.887 -0.547 -0.547 -0.865 0.865 0.547 0.547 0.547 0.547 0.866 -0.865zm-0.865 0.865 -0.547 -0.547a5.806 5.806 0 0 1 -0.437 0.416c-0.081 0.063 -0.067 0.034 -0.004 0.026l0.101 0.767 0.101 0.768c0.325 -0.043 0.572 -0.195 0.766 -0.348 0.18 -0.143 0.372 -0.338 0.567 -0.534zm-0.886 0.661 -0.101 -0.767h-0.001l-0.024 0.774 -0.024 0.773q0.122 0.004 0.25 -0.012zm-0.125 0.006 0.024 -0.774c0.063 0.002 0.078 0.031 -0.008 -0.025a5.806 5.806 0 0 1 -0.475 -0.369l-0.49 0.599 -0.49 0.599c0.214 0.175 0.426 0.35 0.619 0.474 0.208 0.134 0.469 0.259 0.795 0.27zm-0.949 -0.569 0.49 -0.599c-0.417 -0.341 -0.79 -0.65 -1.111 -0.847 -0.317 -0.197 -0.766 -0.404 -1.282 -0.259l0.209 0.745 0.21 0.746c-0.129 0.036 -0.165 -0.047 0.05 0.085 0.211 0.131 0.491 0.358 0.945 0.728zm-1.693 -0.96 -0.21 -0.745q-0.179 0.05 -0.339 0.14l0.379 0.675 0.379 0.675zm-0.17 0.07 -0.379 -0.675c-0.467 0.263 -0.638 0.726 -0.724 1.089 -0.087 0.367 -0.133 0.849 -0.187 1.385l0.77 0.077 0.77 0.077c0.058 -0.583 0.096 -0.941 0.153 -1.183 0.058 -0.245 0.091 -0.16 -0.026 -0.095zm-0.519 1.876 -0.77 -0.077a6.774 6.774 0 0 1 -0.075 0.598c-0.022 0.101 -0.031 0.07 0.013 0.023l0.565 0.53 0.564 0.53c0.225 -0.238 0.319 -0.512 0.372 -0.754 0.049 -0.225 0.074 -0.497 0.102 -0.772zm-0.268 1.074 -0.564 -0.53 0.472 0.614 0.471 0.614q0.097 -0.074 0.186 -0.167zm-0.093 0.084 -0.471 -0.614c0.051 -0.039 0.081 -0.026 -0.022 -0.015 -0.119 0.015 -0.289 0.015 -0.602 0.015v1.548c0.277 0 0.551 0.002 0.78 -0.025 0.246 -0.029 0.528 -0.097 0.787 -0.295zm-1.095 0.16v-0.774h-1.226v1.548h1.223zm-1.222 0v-0.774c-0.314 0 -0.483 -0.001 -0.602 -0.015 -0.101 -0.011 -0.071 -0.023 -0.021 0.015l-0.472 0.614 -0.471 0.614c0.259 0.199 0.54 0.267 0.787 0.296 0.228 0.026 0.502 0.025 0.78 0.025zm-1.095 -0.16 0.471 -0.614 -0.564 0.53 -0.564 0.53a1.935 1.935 0 0 0 0.185 0.167zm-0.093 -0.084 0.565 -0.53c0.043 0.046 0.033 0.076 0.012 -0.023a5.806 5.806 0 0 1 -0.075 -0.597l-0.77 0.077 -0.77 0.077c0.028 0.276 0.054 0.549 0.103 0.774 0.053 0.242 0.149 0.515 0.372 0.753zm-0.269 -1.074 0.77 -0.077c-0.054 -0.536 -0.101 -1.017 -0.186 -1.383 -0.086 -0.363 -0.256 -0.827 -0.723 -1.089l-0.379 0.674 -0.38 0.675c-0.116 -0.066 -0.083 -0.151 -0.026 0.095 0.057 0.242 0.095 0.6 0.153 1.183zm-0.519 -1.876 0.379 -0.675a1.645 1.645 0 0 0 -0.341 -0.14l-0.209 0.745 -0.209 0.746zm-0.17 -0.07 0.209 -0.746c-0.516 -0.145 -0.964 0.062 -1.281 0.259 -0.321 0.197 -0.694 0.506 -1.111 0.847l0.49 0.599 0.49 0.599c0.453 -0.372 0.733 -0.598 0.945 -0.728 0.214 -0.133 0.178 -0.05 0.05 -0.085zm-1.693 0.959 -0.49 -0.599a5.806 5.806 0 0 1 -0.475 0.369c-0.086 0.056 -0.07 0.027 -0.008 0.026l0.025 0.774 0.025 0.773c0.326 -0.011 0.587 -0.136 0.795 -0.271 0.194 -0.124 0.404 -0.298 0.619 -0.473zm-0.948 0.569 -0.024 -0.774 -0.101 0.768 -0.101 0.768q0.129 0.015 0.251 0.012zm-0.125 -0.006 0.101 -0.767c0.063 0.008 0.077 0.038 -0.004 -0.026a5.806 5.806 0 0 1 -0.436 -0.415l-0.547 0.547 -0.547 0.547c0.196 0.196 0.388 0.39 0.568 0.533 0.194 0.155 0.441 0.306 0.765 0.348zm-0.886 -0.66 0.547 -0.547 -0.865 -0.866 -0.547 0.547 -0.548 0.548 0.866 0.865zm-0.869 -0.863 0.547 -0.548a5.806 5.806 0 0 1 -0.416 -0.436c-0.063 -0.081 -0.033 -0.067 -0.026 -0.005l-0.767 0.101 -0.767 0.101c0.043 0.324 0.194 0.571 0.348 0.765 0.142 0.18 0.337 0.373 0.533 0.569zm-0.661 -0.887 0.768 -0.101 -0.774 -0.024 -0.774 -0.023q-0.003 0.122 0.013 0.249zm-0.006 -0.125 0.774 0.023c-0.002 0.063 -0.031 0.079 0.025 -0.008 0.065 -0.101 0.171 -0.232 0.37 -0.475l-0.599 -0.491 -0.599 -0.49c-0.177 0.215 -0.351 0.426 -0.475 0.62a1.548 1.548 0 0 0 -0.269 0.796zm0.57 -0.95 0.599 0.491c0.341 -0.418 0.649 -0.791 0.847 -1.112 0.196 -0.317 0.403 -0.766 0.259 -1.283l-0.746 0.209 -0.746 0.21c-0.036 -0.128 0.048 -0.165 -0.085 0.05 -0.131 0.211 -0.357 0.492 -0.728 0.945zm0.958 -1.693 0.745 -0.21a1.645 1.645 0 0 0 -0.14 -0.339l-0.675 0.379 -0.675 0.379zm-0.07 -0.17 0.675 -0.379c-0.263 -0.467 -0.726 -0.637 -1.089 -0.723 -0.367 -0.087 -0.849 -0.133 -1.385 -0.186l-0.077 0.77 -0.077 0.77c0.583 0.058 0.941 0.096 1.183 0.153 0.246 0.058 0.16 0.091 0.095 -0.025zm-1.876 -0.519 0.077 -0.77a5.806 5.806 0 0 1 -0.598 -0.074c-0.101 -0.022 -0.07 -0.031 -0.023 0.012l-0.53 0.565 -0.53 0.564c0.238 0.223 0.512 0.318 0.754 0.372 0.225 0.048 0.497 0.074 0.773 0.101zm-1.074 -0.268 0.53 -0.564 -0.614 0.471 -0.614 0.472c0.046 0.059 0.101 0.124 0.168 0.186zm-0.084 -0.093 0.614 -0.472c0.039 0.051 0.027 0.081 0.015 -0.021a5.806 5.806 0 0 1 -0.015 -0.602H1.162c0 0.278 -0.001 0.551 0.026 0.78 0.028 0.246 0.096 0.528 0.294 0.787zm-0.161 -1.094h0.774v-1.222H1.161v1.223zm0 -1.222h0.774c0 -0.314 0.002 -0.482 0.015 -0.602 0.012 -0.101 0.023 -0.072 -0.015 -0.022l-0.614 -0.471 -0.614 -0.471a1.548 1.548 0 0 0 -0.295 0.787c-0.026 0.228 -0.026 0.503 -0.026 0.78zm0.16 -1.095 0.614 0.472v-0.001l-0.53 -0.564 -0.53 -0.564q-0.094 0.089 -0.168 0.186zm0.084 -0.093 0.53 0.565c-0.046 0.043 -0.077 0.033 0.023 0.012a5.806 5.806 0 0 1 0.598 -0.075l-0.077 -0.77 -0.077 -0.77c-0.276 0.028 -0.548 0.054 -0.773 0.103a1.548 1.548 0 0 0 -0.753 0.372zm1.074 -0.269 0.077 0.77c0.537 -0.053 1.018 -0.101 1.384 -0.187 0.364 -0.085 0.827 -0.256 1.089 -0.724l-0.675 -0.379 -0.675 -0.379c0.065 -0.116 0.151 -0.083 -0.095 -0.025 -0.242 0.057 -0.6 0.094 -1.182 0.153zM5.129 9.429l0.675 0.379q0.09 -0.159 0.141 -0.339l-0.746 -0.209 -0.746 -0.209zm0.07 -0.17 0.746 0.209c0.145 -0.516 -0.063 -0.964 -0.259 -1.281 -0.197 -0.321 -0.506 -0.694 -0.846 -1.111l-0.599 0.49 -0.599 0.49c0.37 0.454 0.597 0.733 0.728 0.945 0.133 0.215 0.05 0.178 0.085 0.05zm-0.958 -1.692 0.599 -0.49a5.806 5.806 0 0 1 -0.37 -0.475c-0.055 -0.086 -0.027 -0.07 -0.025 -0.008l-0.774 0.026 -0.774 0.024c0.011 0.327 0.137 0.588 0.271 0.795 0.124 0.194 0.298 0.405 0.474 0.619zm-0.571 -0.948 0.774 -0.025 -0.768 -0.101 -0.767 -0.101q-0.017 0.128 -0.012 0.25zm0.006 -0.125 0.767 0.101c-0.008 0.063 -0.038 0.076 0.026 -0.004a6.774 6.774 0 0 1 0.416 -0.437l-0.547 -0.547 -0.548 -0.547c-0.196 0.196 -0.39 0.389 -0.533 0.568a1.548 1.548 0 0 0 -0.348 0.765zm0.661 -0.887 0.547 0.547 0.866 -0.865 -0.547 -0.547 -0.547 -0.547 -0.866 0.865zm0.866 -0.866 0.547 0.547c0.222 -0.222 0.342 -0.341 0.437 -0.416 0.081 -0.064 0.067 -0.034 0.004 -0.026l-0.101 -0.768 -0.102 -0.767a1.548 1.548 0 0 0 -0.765 0.348c-0.18 0.143 -0.372 0.338 -0.567 0.533zm0.886 -0.662 0.101 0.768h0.001l0.024 -0.774 0.025 -0.773a1.935 1.935 0 0 0 -0.251 0.012zm0.125 -0.005 -0.024 0.773c-0.063 -0.002 -0.079 -0.03 0.008 0.025 0.101 0.065 0.232 0.171 0.475 0.37l0.49 -0.599 0.49 -0.599a6.774 6.774 0 0 0 -0.619 -0.475 1.548 1.548 0 0 0 -0.795 -0.269zm0.949 0.569 -0.49 0.599c0.417 0.341 0.79 0.649 1.11 0.847 0.317 0.196 0.766 0.403 1.282 0.259l-0.209 -0.746 -0.209 -0.746c0.128 -0.036 0.165 0.048 -0.05 -0.085 -0.212 -0.131 -0.492 -0.357 -0.945 -0.728zm1.693 0.96 0.209 0.745q0.177 -0.05 0.34 -0.141l-0.379 -0.675 -0.379 -0.675zm0.17 -0.071 0.379 0.675c0.467 -0.263 0.637 -0.727 0.722 -1.089 0.087 -0.367 0.133 -0.849 0.187 -1.384l-0.77 -0.077 -0.77 -0.077c-0.058 0.583 -0.096 0.941 -0.153 1.184 -0.058 0.246 -0.091 0.16 0.025 0.094zm0.519 -1.876 0.77 0.077c0.031 -0.311 0.05 -0.48 0.075 -0.597 0.022 -0.1 0.031 -0.07 -0.012 -0.023l-0.565 -0.53 -0.564 -0.53a1.548 1.548 0 0 0 -0.372 0.753c-0.049 0.225 -0.075 0.496 -0.103 0.773zm0.268 -1.072 0.564 0.53 -0.472 -0.614 -0.471 -0.614a1.935 1.935 0 0 0 -0.186 0.168zm0.093 -0.084 0.471 0.615c-0.05 0.039 -0.081 0.026 0.021 0.015a5.806 5.806 0 0 1 0.602 -0.014v-1.548c-0.277 0 -0.551 -0.001 -0.78 0.026a1.548 1.548 0 0 0 -0.787 0.294zm1.095 -0.16v0.774h1.223v-1.548h-1.223zm0.612 5.806v-0.774a4.645 4.645 0 0 0 -4.645 4.645h1.548a3.097 3.097 0 0 1 3.097 -3.097zm-3.871 3.871h-0.774a4.645 4.645 0 0 0 4.645 4.645v-1.548a3.097 3.097 0 0 1 -3.097 -3.097zm3.871 3.871v0.774a4.645 4.645 0 0 0 4.645 -4.645H14.71a3.097 3.097 0 0 1 -3.097 3.097zm3.871 -3.871h0.774a4.645 4.645 0 0 0 -4.645 -4.645v1.548a3.097 3.097 0 0 1 3.097 3.097z" fill="currentColor"/></svg>