<svg width="50" height="47" viewBox="0 0 50 47" fill="none" xmlns="http://www.w3.org/2000/svg">
<path d="M38.1437 38.4187C38.1437 36.8377 36.9595 35.5561 35.4987 35.5561C34.0379 35.5561 32.8537 36.8377 32.8537 38.4187C32.8537 39.9996 34.0379 41.2812 35.4987 41.2812C36.9595 41.2812 38.1437 39.9996 38.1437 38.4187ZM43.4338 38.4187C43.4338 43.1615 39.8811 47.0063 35.4987 47.0063C31.1163 47.0063 27.5637 43.1615 27.5637 38.4187C27.5637 33.6759 31.1163 29.8311 35.4987 29.8311C39.8811 29.8311 43.4338 33.6759 43.4338 38.4187Z" fill="#00FFAE"/>
<path d="M18.9327 38.4187C18.9327 36.8377 17.7484 35.5561 16.2876 35.5561C14.8269 35.5561 13.6426 36.8377 13.6426 38.4187C13.6426 39.9996 14.8269 41.2812 16.2876 41.2812C17.7484 41.2812 18.9327 39.9996 18.9327 38.4187ZM24.2227 38.4187C24.2227 43.1615 20.67 47.0063 16.2876 47.0063C11.9053 47.0063 8.35263 43.1615 8.35263 38.4187C8.35263 33.6759 11.9053 29.8311 16.2876 29.8311C20.67 29.8311 24.2227 33.6759 24.2227 38.4187Z" fill="#00FFAE"/>
<path d="M30.1159 35.6418C31.628 35.6418 32.8537 36.9715 32.8537 38.6119C32.8537 40.2523 31.628 41.5821 30.1159 41.5821H21.9025C20.3904 41.5821 19.1647 40.2523 19.1647 38.6119C19.1647 36.9715 20.3904 35.6418 21.9025 35.6418H30.1159ZM38.701 11.8487C38.5793 11.8666 38.4556 11.8806 38.3293 11.8806V17.8209H43.805V16.2778L38.701 11.8487ZM5.47559 20.791H19.1647V11.8806H5.47559V20.791ZM49.2806 32.6716C49.2806 37.5927 45.6033 41.5821 41.0672 41.5821C39.5551 41.5821 38.3293 40.2523 38.3293 38.6119C38.3293 37.0743 39.4062 35.8087 40.7864 35.6563L41.3479 35.6273C42.7281 35.4748 43.805 34.2092 43.805 32.6716V23.7612H35.5915C34.0795 23.7612 32.8537 22.4314 32.8537 20.791V8.91044C32.8537 8.27609 33.0361 7.68744 33.3483 7.20493L31.8912 5.94029H24.6403V23.7612C24.6403 25.4015 23.4145 26.7313 21.9025 26.7313H5.47559V32.6716C5.47559 34.312 6.70136 35.6418 8.21341 35.6418H10.9512C12.4633 35.6418 13.689 36.9715 13.689 38.6119C13.689 40.2523 12.4633 41.5821 10.9512 41.5821H8.21341C3.67725 41.5821 -3.04735e-05 37.5927 -3.05176e-05 32.6716V8.91044C-3.05176e-05 7.27007 1.22573 5.94029 2.73778 5.94029H19.1647V2.97015C19.1647 1.32978 20.3904 0 21.9025 0H32.8537C33.4754 0 34.0794 0.228403 34.5649 0.64972L47.2246 11.6398C48.5234 12.767 49.2805 14.4734 49.2806 16.2778V32.6716Z" fill="#00FFAE"/>
</svg>
