<svg width="28" height="28" viewBox="0 0 28 28" fill="none" xmlns="http://www.w3.org/2000/svg"><path d="M16.891 23.996v-5.588a1.12 1.12 0 0 0 -1.119 -1.119h-3.353a1.12 1.12 0 0 0 -1.119 1.119v5.588" stroke="currentColor" stroke-width="2.2357321212121213" stroke-linecap="round" stroke-linejoin="round"/><path d="M6.274 12.817v6.707c0 2.107 0 3.163 0.653 3.816 0.656 0.656 1.709 0.656 3.817 0.656h6.706c2.108 0 3.163 0 3.817 -0.656 0.653 -0.653 0.653 -1.709 0.653 -3.816v-6.707" stroke="currentColor" stroke-width="2.2357321212121213"/><path d="M5.85 5.567c0.203 -0.813 0.306 -1.22 0.609 -1.457s0.722 -0.237 1.561 -0.237h12.159c0.838 0 1.258 0 1.561 0.238 0.302 0.236 0.405 0.643 0.608 1.456l1.345 5.382c0.11 0.433 0.162 0.65 0.152 0.826a1.12 1.12 0 0 1 -0.772 0.987c-0.167 0.055 -0.394 0.055 -0.853 0.055 -0.595 0 -0.894 0 -1.143 -0.058a2.24 2.24 0 0 1 -1.556 -1.318c-0.099 -0.238 -0.147 -0.525 -0.243 -1.099 -0.027 -0.161 -0.04 -0.24 -0.055 -0.261a0.112 0.112 0 0 0 -0.182 0 1.167 1.167 0 0 0 -0.055 0.264l-0.091 0.546 -0.02 0.112a2.24 2.24 0 0 1 -2.144 1.818l-0.113 0.001h-0.114a2.24 2.24 0 0 1 -2.144 -1.818l-0.02 -0.112 -0.091 -0.547c-0.027 -0.161 -0.04 -0.24 -0.055 -0.261a0.112 0.112 0 0 0 -0.182 0 1.167 1.167 0 0 0 -0.055 0.264l-0.091 0.546 -0.019 0.112a2.24 2.24 0 0 1 -2.144 1.818l-0.113 0.001h-0.113A2.24 2.24 0 0 1 9.31 10.891l-0.091 -0.547a1.167 1.167 0 0 0 -0.056 -0.261 0.112 0.112 0 0 0 -0.181 0 1.167 1.167 0 0 0 -0.056 0.264c-0.096 0.574 -0.145 0.861 -0.243 1.099a2.24 2.24 0 0 1 -1.559 1.318c-0.251 0.058 -0.548 0.058 -1.143 0.058 -0.456 0 -0.686 0 -0.853 -0.055a1.12 1.12 0 0 1 -0.772 -0.987c-0.012 -0.175 0.042 -0.393 0.152 -0.826z" stroke="currentColor" stroke-width="2.2357321212121213"/></svg>