<svg width="22" height="21.083" viewBox="0 0 22 21.083" fill="none" xmlns="http://www.w3.org/2000/svg"><path d="M6.574 6.405v-0.087c0 -2.028 0 -3.043 0.65 -3.607 0.653 -0.565 1.657 -0.422 3.664 -0.136l2.944 0.422c2.321 0.331 3.482 0.496 4.175 1.297s0.694 1.97 0.694 4.316v4.025c0 2.344 0 3.517 -0.694 4.316 -0.693 0.799 -1.854 0.965 -4.175 1.297l-3.028 0.433c-1.928 0.275 -2.892 0.412 -3.532 -0.106l-0.095 -0.082c-0.605 -0.56 -0.605 -1.533 -0.605 -3.48" stroke="#111111" stroke-width="1.889965"/><path d="m14.37 10.622 0.738 -0.59 0.472 0.59 -0.472 0.59zm-10.395 0.945a0.945 0.945 0 1 1 0 -1.889zm6.93 -5.276 0.738 -0.59 3.465 4.331 -0.738 0.59 -0.738 0.59 -3.465 -4.331zm3.465 4.331 0.738 0.59 -3.465 4.331 -0.738 -0.59 -0.738 -0.59 3.465 -4.331zm0 0v0.945h-10.395V9.679h10.395z" fill="#111111"/></svg>