<svg width="24" height="22.4" viewBox="0 0 24 22.4" fill="none" xmlns="http://www.w3.org/2000/svg"><path d="M12.445 14.567v-1.251a0.8 0.8 0 1 1 1.6 0v1.251a0.8 0.8 0 0 1 -1.6 0m0 -6.251V7.066a0.8 0.8 0 1 1 1.6 0V8.316a0.8 0.8 0 0 1 -1.6 0m0 -6.25v-0.451H4.783c-0.71 0 -1.196 0.001 -1.571 0.032 -0.366 0.03 -0.555 0.084 -0.69 0.152a1.68 1.68 0 0 0 -0.739 0.742c-0.069 0.136 -0.123 0.328 -0.152 0.696 -0.032 0.378 -0.032 0.865 -0.032 1.578v2.7h0.445a3.295 3.295 0 0 1 3.289 3.3 3.295 3.295 0 0 1 -3.289 3.3h-0.445v2.7c0 0.714 0 1.2 0.032 1.577 0.029 0.368 0.083 0.56 0.152 0.696 0.162 0.32 0.423 0.58 0.739 0.742 0.134 0.068 0.324 0.123 0.69 0.153 0.374 0.031 0.86 0.032 1.571 0.032h7.662v-0.451a0.8 0.8 0 1 1 1.6 0v0.45h5.172c0.71 0 1.196 0 1.571 -0.031 0.366 -0.03 0.555 -0.085 0.69 -0.153a1.68 1.68 0 0 0 0.739 -0.742c0.069 -0.136 0.123 -0.328 0.152 -0.696 0.032 -0.377 0.032 -0.864 0.032 -1.577v-2.7h-0.445a3.295 3.295 0 0 1 -3.289 -3.3 3.295 3.295 0 0 1 3.289 -3.3H22.4V4.816c0 -0.713 0 -1.2 -0.032 -1.576 -0.029 -0.368 -0.083 -0.56 -0.152 -0.696a1.68 1.68 0 0 0 -0.739 -0.742c-0.134 -0.069 -0.324 -0.123 -0.69 -0.154 -0.374 -0.031 -0.86 -0.031 -1.571 -0.031h-5.172v0.451a0.8 0.8 0 0 1 -1.6 0m11.555 5.962a1.088 1.088 0 0 1 -1.085 1.086h-0.959a1.696 1.696 0 0 0 -1.688 1.7c0 0.943 0.76 1.7 1.688 1.7h0.959a1.088 1.088 0 0 1 1.085 1.088v3.213c0 0.687 0 1.251 -0.036 1.707 -0.037 0.466 -0.119 0.891 -0.321 1.29a3.295 3.295 0 0 1 -1.436 1.443c-0.399 0.204 -0.823 0.286 -1.288 0.323 -0.455 0.037 -1.016 0.036 -1.7 0.036H4.783c-0.684 0 -1.246 0.001 -1.701 -0.036 -0.465 -0.037 -0.889 -0.12 -1.288 -0.323a3.295 3.295 0 0 1 -1.436 -1.443c-0.202 -0.399 -0.283 -0.824 -0.321 -1.29C0 18.067 0 17.504 0 16.816v-3.213a1.088 1.088 0 0 1 1.085 -1.087h0.959A1.696 1.696 0 0 0 3.733 10.817c0 -0.943 -0.76 -1.7 -1.688 -1.7H1.085A1.088 1.088 0 0 1 0 8.03V4.816c0 -0.686 0 -1.25 0.036 -1.707 0.037 -0.466 0.119 -0.891 0.321 -1.29A3.295 3.295 0 0 1 1.795 0.376c0.398 -0.203 0.823 -0.285 1.288 -0.323 0.455 -0.037 1.016 -0.037 1.701 -0.037H19.218c0.683 0 1.245 0 1.701 0.036 0.464 0.038 0.889 0.12 1.287 0.323a3.295 3.295 0 0 1 1.436 1.443c0.202 0.399 0.283 0.824 0.321 1.29 0.037 0.458 0.037 1.022 0.037 1.708z" fill="currentColor"/></svg>