<svg width="24" height="24" viewBox="0 0 24 24" fill="none" xmlns="http://www.w3.org/2000/svg"><mask id="path-1-inside-1_1349_877" fill="white"><path d="M24 4V6.858c0 0.445 0 0.667 -0.102 0.831a0.646 0.646 0 0 1 -0.21 0.21c-0.162 0.102 -0.386 0.102 -0.831 0.102h-6.858V24L12 22.667 8 24l-4.001 -1.333L0 24V5.334C0 2.819 0 1.562 0.781 0.781S2.819 0 5.334 0h14.667A4 4 0 0 1 24 4"/></mask><path d="M15.077 8a0.923 0.923 0 1 0 1.846 0h-1.846m0.923 -4.001h0.923zM20 0.923a0.923 0.923 0 1 0 0 -1.846v1.846M5.333 4.41a0.923 0.923 0 1 0 0 1.846v-1.846m5.334 1.846a0.923 0.923 0 0 0 0 -1.846v1.846m-4.001 5.334a0.923 0.923 0 1 0 0 -1.846v1.846m-1.333 -1.846a0.923 0.923 0 0 0 0 1.846v-1.846m0 5.333a0.923 0.923 0 1 0 0 1.846v-1.846m4 1.846a0.923 0.923 0 1 0 0 -1.846v1.846m6.666 -8.922h0.923V4h-1.846v4.001zm0 -4.001h0.923A3.077 3.077 0 0 1 20 0.923v-1.846a4.923 4.923 0 0 0 -4.924 4.923zM5.334 5.334v0.923h5.334v-1.846H5.334zm1.333 5.334v-0.923H5.334v1.846h1.333zm-1.333 5.333v0.923h4v-1.846H5.334zM24 4h1.846zm0 2.858h-1.846zm-8 1.143v-1.846h-1.846v1.846zM0 5.333h1.846zM0 24h-1.846v2.562l2.43 -0.81zm16 0 -0.583 1.751 2.43 0.81V24zm6.858 -16v1.846zM20 0v1.846zM5.333 0v-1.846zm2.668 24 -0.584 1.751 0.584 0.195 0.583 -0.194zm-4.001 -1.333 0.584 -1.752 -0.584 -0.194 -0.583 0.194zm8 0 0.584 -1.752 -0.584 -0.194 -0.584 0.194zM23.898 7.688l1.563 0.982zm-0.21 0.21 0.982 1.563zM24 4h-1.846V6.858h3.692V4zM0 5.334h-1.846V24h3.692V5.334zM16 24h1.846V8h-3.692V24zm6.858 -16v-1.846h-6.858v3.692h6.858zM20 0v-1.846H5.333v3.692h14.668zm-12 24 0.583 -1.751 -4 -1.334 -0.584 1.752 -0.583 1.751 4 1.333zm-4.001 -1.333 -0.583 -1.752 -4 1.334L0 24l0.583 1.751 4.001 -1.333zm12 1.333 0.584 -1.751 -4.001 -1.334L12 22.667l-0.584 1.751 4.001 1.333zM12 22.667l-0.584 -1.752 -4 1.334L8 24l0.583 1.751 4.001 -1.333zM0 5.334h1.846c0 -1.31 0.004 -2.106 0.081 -2.681 0.036 -0.265 0.079 -0.408 0.11 -0.482 0.024 -0.06 0.04 -0.075 0.049 -0.085L0.781 0.781 -0.524 -0.524c-0.791 0.791 -1.083 1.754 -1.207 2.686 -0.118 0.877 -0.114 1.966 -0.114 3.172zM5.334 0v-1.846c-1.206 0 -2.295 -0.004 -3.173 0.114 -0.93 0.125 -1.894 0.416 -2.686 1.207L0.782 0.781 2.086 2.086c0.009 -0.009 0.025 -0.025 0.085 -0.049 0.074 -0.03 0.217 -0.074 0.482 -0.111C3.228 1.851 4.025 1.846 5.334 1.846zM24 6.858h-1.846l-0.001 0.26 -0.003 0.083c0 -0.005 0.006 -0.064 0.03 -0.152 0.028 -0.096 0.074 -0.217 0.154 -0.342l1.563 0.982 1.564 0.982c0.267 -0.425 0.338 -0.844 0.364 -1.113 0.023 -0.242 0.021 -0.514 0.021 -0.7zm-1.143 1.143v1.846c0.186 0 0.458 0.002 0.7 -0.022a2.492 2.492 0 0 0 1.113 -0.364l-0.982 -1.563 -0.982 -1.563c0.126 -0.079 0.247 -0.127 0.343 -0.154 0.088 -0.025 0.148 -0.03 0.151 -0.031a15.086 15.086 0 0 1 -0.343 0.005zm1.04 -0.312 -1.563 -0.982c0.094 -0.15 0.222 -0.277 0.371 -0.371l0.982 1.563 0.982 1.563c0.319 -0.2 0.591 -0.471 0.791 -0.79zM20 0v1.846A2.154 2.154 0 0 1 22.154 4h3.692A5.846 5.846 0 0 0 20 -1.846z" fill="currentColor" mask="url(#path-1-inside-1_1349_877)"/></svg>