<svg width="22" height="22" viewBox="0 0 22 22" fill="none" xmlns="http://www.w3.org/2000/svg"><mask id="path-1-inside-1_1349_877" fill="white"><path d="M22 3.667v2.62c0 0.408 0 0.611 -0.093 0.762a0.596 0.596 0 0 1 -0.192 0.192c-0.148 0.093 -0.354 0.093 -0.762 0.093h-6.286V22L11 20.778 7.333 22l-3.668 -1.222L0 22V4.889C0 2.584 0 1.432 0.716 0.716S2.584 0 4.889 0h13.445A3.667 3.667 0 0 1 22 3.667"/></mask><path d="M13.821 7.333a0.846 0.846 0 1 0 1.692 0zM14.667 3.666h0.846zm3.667 -2.82a0.846 0.846 0 1 0 0 -1.692zM4.889 4.042a0.846 0.846 0 1 0 0 1.692zm4.889 1.692a0.846 0.846 0 0 0 0 -1.692zM6.111 10.624a0.846 0.846 0 1 0 0 -1.692zM4.889 8.932a0.846 0.846 0 0 0 0 1.692zm0 4.889a0.846 0.846 0 1 0 0 1.692zm3.667 1.692a0.846 0.846 0 1 0 0 -1.692zm6.111 -8.178h0.846V3.667h-1.692v3.668zm0 -3.668h0.846A2.821 2.821 0 0 1 18.333 0.846V-0.846A4.513 4.513 0 0 0 13.82 3.667zM4.889 4.889v0.846h4.889V4.043H4.889zm1.222 4.889v-0.846H4.889v1.692h1.222zm-1.222 4.889v0.846h3.667v-1.692h-3.667zM22 3.667h1.692zm0 2.62h-1.692zm-7.333 1.048V5.642h-1.692v1.692zM0 4.889h1.692zM0 22h-1.692v2.348l2.228 -0.743zm14.667 0 -0.534 1.605 2.228 0.743V22zm6.286 -14.667v1.692zM18.333 0v1.692zM4.889 0v-1.692zm2.446 22 -0.535 1.605 0.535 0.179 0.534 -0.178zM3.667 20.778l0.535 -1.606L3.667 18.994l-0.534 0.178zm7.333 0 0.535 -1.606 -0.535 -0.178 -0.535 0.178zM21.906 7.047l1.433 0.9zm-0.192 0.192 0.9 1.433zM22 3.667h-1.692v2.62h3.384V3.667zM0 4.889h-1.692V22h3.384V4.889zM14.667 22h1.692V7.333h-3.384v14.667zm6.286 -14.667V5.641H14.667v3.384h6.286zM18.333 0v-1.692H4.889v3.384h13.446zM7.333 22l0.534 -1.605 -3.667 -1.223 -0.535 1.606 -0.534 1.605 3.667 1.222zm-3.668 -1.222 -0.534 -1.606 -3.667 1.223L0 22l0.534 1.605 3.668 -1.222zm11 1.222 0.535 -1.605 -3.668 -1.223L11 20.778l-0.535 1.605 3.668 1.222zM11 20.778l-0.535 -1.606 -3.667 1.223L7.333 22l0.534 1.605 3.668 -1.222zM0 4.889h1.692c0 -1.201 0.004 -1.93 0.074 -2.458 0.033 -0.243 0.072 -0.374 0.101 -0.442 0.022 -0.055 0.037 -0.069 0.045 -0.078L0.716 0.716 -0.48 -0.48c-0.725 0.725 -0.993 1.608 -1.106 2.462 -0.108 0.804 -0.104 1.802 -0.104 2.908zM4.889 0v-1.692c-1.105 0 -2.104 -0.004 -2.909 0.104 -0.853 0.115 -1.736 0.381 -2.462 1.106L0.717 0.716l1.195 1.196c0.008 -0.008 0.023 -0.023 0.078 -0.045 0.068 -0.027 0.199 -0.068 0.442 -0.102 0.527 -0.069 1.258 -0.073 2.458 -0.073zM22 6.286h-1.692l-0.001 0.238 -0.003 0.076c0 -0.005 0.005 -0.059 0.027 -0.139 0.026 -0.088 0.068 -0.199 0.141 -0.314l1.433 0.9 1.434 0.9c0.245 -0.39 0.31 -0.774 0.334 -1.02 0.021 -0.222 0.019 -0.471 0.019 -0.642zm-1.048 1.048v1.692c0.17 0 0.42 0.002 0.642 -0.02a2.292 2.292 0 0 0 1.02 -0.334l-0.9 -1.433 -0.9 -1.433c0.115 -0.072 0.226 -0.116 0.314 -0.141 0.081 -0.023 0.136 -0.027 0.138 -0.028l-0.314 0.005zm0.953 -0.286 -1.433 -0.9c0.086 -0.137 0.203 -0.254 0.34 -0.34l0.9 1.433 0.9 1.433c0.292 -0.183 0.542 -0.432 0.725 -0.724zM18.333 0v1.692A1.974 1.974 0 0 1 20.308 3.667h3.384A5.359 5.359 0 0 0 18.333 -1.692z" fill="currentColor" mask="url(#path-1-inside-1_1349_877)"/></svg>