<svg width="23" height="23" viewBox="0 0 23 23" fill="none" xmlns="http://www.w3.org/2000/svg">
<path d="M17.25 0C20.4256 1.93277e-07 23 2.57436 23 5.75V17.25C23 20.4256 20.4256 23 17.25 23H5.75C2.57436 23 2.11805e-07 20.4256 0 17.25V5.75C0 2.57436 2.57436 1.85224e-08 5.75 0H17.25ZM5.75 2.2998C3.84462 2.2998 2.2998 3.84462 2.2998 5.75V17.25C2.2998 19.1554 3.84462 20.7002 5.75 20.7002H17.25C19.1554 20.7002 20.7002 19.1554 20.7002 17.25V5.75C20.7002 3.84462 19.1554 2.2998 17.25 2.2998H5.75ZM12.6504 10.3496H17.25V12.6494H12.6504V17.25H10.3496V12.6494H5.75V10.3496H10.3496V5.75H12.6504V10.3496Z" fill="currentColor"/>
</svg>
