<svg width="24" height="23" viewBox="0 0 24 23" fill="none" xmlns="http://www.w3.org/2000/svg">
<circle cx="12.0143" cy="7.8069" r="3.77992" stroke="#111111" stroke-width="2.06178" stroke-linecap="round"/>
<path d="M12.0166 14.3352C12.2845 14.3352 12.5516 14.3462 12.8174 14.3655C11.8902 14.7154 11.1743 15.4951 10.918 16.4641C9.82229 16.599 8.79395 16.934 7.92871 17.4319C6.77893 18.0937 6.01892 18.9828 5.68555 19.9153C5.49403 20.4513 4.90424 20.7307 4.36816 20.5393C3.83201 20.3478 3.55259 19.7581 3.74414 19.2219C4.27237 17.7438 5.41029 16.5024 6.90039 15.6448C8.39121 14.7869 10.1893 14.3353 12.0166 14.3352Z" fill="#111111"/>
<path d="M17.6836 13.4768L17.6836 21.0367" stroke="#111111" stroke-width="2.57722" stroke-linecap="round"/>
<path d="M21.4648 17.2567L13.905 17.2567" stroke="#111111" stroke-width="2.57722" stroke-linecap="round"/>
</svg>
