<svg width="24" height="26" viewBox="0 0 24 26" fill="none" xmlns="http://www.w3.org/2000/svg"><path d="M12 16.552c2.627 0 5.212 0.638 7.357 1.852 2.144 1.215 3.789 2.976 4.554 5.083a1.5 1.5 0 0 1 -2.82 1.024c-0.474 -1.306 -1.56 -2.56 -3.213 -3.497 -1.651 -0.936 -3.718 -1.462 -5.877 -1.462 -2.16 0 -4.227 0.526 -5.878 1.462 -1.654 0.936 -2.738 2.19 -3.212 3.497a1.5 1.5 0 0 1 -2.82 -1.024c0.764 -2.107 2.41 -3.867 4.553 -5.083 2.145 -1.215 4.73 -1.852 7.357 -1.852m3.936 -9.201c0 -2.105 -1.74 -3.851 -3.935 -3.851S8.065 5.245 8.065 7.35s1.74 3.851 3.936 3.851 3.935 -1.746 3.935 -3.85m3 0c0 3.805 -3.128 6.85 -6.935 6.85s-6.937 -3.045 -6.937 -6.85C5.065 3.545 8.193 0.5 12.001 0.5s6.935 3.045 6.935 6.85" fill="currentColor"/></svg>