<svg width="20.308" height="22" viewBox="0 0 20.308 22" fill="none" xmlns="http://www.w3.org/2000/svg"><path d="M10.154 14.006c2.222 0 4.41 0.54 6.226 1.568s3.206 2.518 3.854 4.302a1.27 1.27 0 0 1 -2.386 0.867c-0.402 -1.106 -1.32 -2.166 -2.72 -2.958 -1.398 -0.792 -3.146 -1.238 -4.974 -1.238s-3.578 0.446 -4.974 1.238c-1.4 0.792 -2.316 1.854 -2.718 2.958a1.27 1.27 0 0 1 -2.386 -0.867c0.646 -1.784 2.04 -3.272 3.852 -4.302 1.815 -1.028 4.002 -1.568 6.226 -1.568m3.33 -7.786c0 -1.78 -1.472 -3.258 -3.33 -3.258s-3.33 1.476 -3.33 3.258 1.472 3.258 3.33 3.258 3.33 -1.478 3.33 -3.258m2.538 0c0 3.22 -2.646 5.796 -5.869 5.796s-5.87 -2.576 -5.87 -5.796S6.932 0.423 10.154 0.423s5.869 2.576 5.869 5.796" fill="currentColor"/></svg>