<svg width="54" height="44" viewBox="0 0 54 44" fill="none" xmlns="http://www.w3.org/2000/svg">
<path d="M32.4 11.2245C32.4 8.12493 29.9823 5.61224 27 5.61224C24.0177 5.61224 21.6 8.12493 21.6 11.2245C21.6 14.324 24.0177 16.8367 27 16.8367V22.449C21.0353 22.449 16.2 17.4236 16.2 11.2245C16.2 5.02537 21.0353 0 27 0C32.9647 0 37.8 5.02537 37.8 11.2245C37.8 17.4236 32.9647 22.449 27 22.449V16.8367C29.9823 16.8367 32.4 14.324 32.4 11.2245Z" fill="#00FFAE"/>
<path d="M38.97 5.6784C40.93 5.09278 43.0182 5.39965 44.7754 6.53101C46.5325 7.66239 47.8142 9.52507 48.3394 11.7105C48.8645 13.8961 48.5893 16.2246 47.5748 18.1842C46.5602 20.1435 44.8898 21.5727 42.93 22.1583C40.97 22.744 38.8818 22.4371 37.1246 21.3057C35.3675 20.1743 34.0858 18.3117 33.5606 16.1262C33.0355 13.9406 33.3107 11.6121 34.3252 9.65258C35.3398 7.69328 37.0102 6.26399 38.97 5.6784ZM42.2251 11.455C41.6394 11.078 40.9433 10.9765 40.29 11.1717C39.6367 11.3669 39.0791 11.8432 38.7409 12.4964C38.4028 13.1496 38.3118 13.9259 38.4869 14.6543C38.6619 15.3829 39.0891 16.0046 39.6749 16.3817C40.2606 16.7588 40.9567 16.8602 41.61 16.665C42.2633 16.4698 42.8209 15.9935 43.1591 15.3403C43.4972 14.6872 43.5882 13.9109 43.4131 13.1824C43.2381 12.4539 42.8109 11.8321 42.2251 11.455Z" fill="#00FFAE"/>
<path d="M11.4036 5.6784C13.4789 5.09278 15.6898 5.39965 17.5505 6.53101C19.4109 7.66239 20.768 9.52507 21.324 11.7105C21.8801 13.8961 21.5887 16.2246 20.5145 18.1842C19.4402 20.1435 17.6715 21.5727 15.5964 22.1583C13.5211 22.744 11.3102 22.4371 9.44954 21.3057C7.58915 20.1743 6.232 18.3117 5.67598 16.1262C5.11991 13.9406 5.4113 11.6121 6.48554 9.65258C7.55982 7.69328 9.32847 6.26399 11.4036 5.6784ZM14.8502 11.455C14.23 11.078 13.4929 10.9765 12.8012 11.1717C12.1094 11.3669 11.519 11.8432 11.161 12.4964C10.803 13.1496 10.7067 13.9259 10.892 14.6543C11.0773 15.3829 11.5296 16.0046 12.1498 16.3817C12.77 16.7588 13.5071 16.8602 14.1988 16.665C14.8906 16.4698 15.4809 15.9935 15.839 15.3403C16.197 14.6872 16.2933 13.9109 16.108 13.1824C15.9226 12.4539 15.4704 11.8321 14.8502 11.455Z" fill="#00FFAE"/>
<path d="M40.7419 24.2449C48.927 24.2449 52.3959 30.6686 53.687 34.3972C55.0155 38.2365 51.8802 41.3061 48.7014 41.3061H38.1421L37.692 39.0235C37.2089 36.5668 36.0022 33.3672 33.1213 31.5287L29.7 29.3461L32.9098 26.8524C34.9213 25.2876 37.5101 24.2452 40.7419 24.2449ZM40.0235 29.9597C39.9035 29.9693 39.7865 29.9872 39.6711 30.0014C41.1094 31.842 41.9987 33.8527 42.5529 35.619H48.1999C47.0811 32.8081 44.9583 29.932 40.7419 29.932L40.0235 29.9597Z" fill="#00FFAE"/>
<path d="M13.8587 24.256C16.8134 24.3765 19.2055 25.3849 21.0898 26.8496L24.3 29.3461L20.881 31.5287C18.0009 33.367 16.7931 36.5663 16.3098 39.0235L15.8597 41.3061H5.29911C2.11987 41.3061 -1.01553 38.2363 0.313006 34.3972L0.581426 33.6669C2.0568 29.889 5.58587 24.2449 13.2595 24.2449L13.8587 24.256ZM13.2595 29.932C9.04273 29.932 6.91966 32.8081 5.8007 35.619H11.4484C12.0023 33.8531 12.8901 31.8419 14.3278 30.0014C13.9909 29.9599 13.6358 29.932 13.2595 29.932Z" fill="#00FFAE"/>
<path d="M27 24.2449C32.6433 24.2449 36.5478 26.3582 39.1172 29.2939C41.5998 32.1306 42.644 35.5098 43.0946 37.8265C43.7935 41.4199 40.8949 44 37.9781 44H16.0219C13.1051 44 10.2065 41.4199 10.9054 37.8265L11.1037 36.9115C11.6391 34.6738 12.7104 31.7762 14.8828 29.2939C17.4522 26.3582 21.3567 24.2449 27 24.2449ZM27 29.8892C22.8411 29.8892 20.4435 31.377 18.9621 33.0697C17.5589 34.6732 16.8091 36.6667 16.4159 38.3557H37.5841C37.1909 36.6667 36.4411 34.6732 35.0379 33.0697C33.5565 31.377 31.1589 29.8892 27 29.8892Z" fill="#00FFAE"/>
</svg>
