<svg width="22.847" height="22" viewBox="0 0 22.847 22" fill="none" xmlns="http://www.w3.org/2000/svg"><path d="M2.284 4.053c0 0.96 0.767 1.738 1.713 1.738h11.667l0.919 -0.006c0.755 -0.01 1.064 -0.039 1.304 -0.126a2.292 2.292 0 0 0 1.403 -1.423c0.105 -0.299 0.125 -0.701 0.127 -1.92H3.999c-0.947 0 -1.713 0.778 -1.713 1.736m13.708 9.841c0 0.578 0.002 0.897 0.031 1.117l0.002 0.008 0.008 0.002c0.215 0.03 0.531 0.033 1.101 0.033h3.427v-2.318h-3.427c-0.57 0 -0.884 0.002 -1.101 0.031l-0.008 0.003 -0.002 0.008c-0.03 0.22 -0.031 0.537 -0.031 1.116m6.854 4.632c0 0.512 0.002 1.016 -0.053 1.424 -0.06 0.444 -0.203 0.95 -0.617 1.37s-0.914 0.566 -1.352 0.624c-0.404 0.056 -0.899 0.053 -1.405 0.053H5.712c-1.045 0 -1.943 0.003 -2.66 -0.094 -0.75 -0.102 -1.467 -0.333 -2.048 -0.922S0.194 19.663 0.093 18.904C-0.003 18.177 0 17.266 0 16.207V4.053l0.006 -0.208C0.113 1.703 1.859 0.002 3.999 0.002h15.748c0.133 0 0.49 -0.016 0.809 0.097a1.714 1.714 0 0 1 1.052 1.067c0.112 0.325 0.095 0.687 0.095 0.821 0 1.29 0.016 2.229 -0.257 3.02a4.858 4.858 0 0 1 -0.41 0.875c0.381 0.079 0.789 0.236 1.139 0.589 0.414 0.422 0.558 0.927 0.617 1.37 0.054 0.41 0.053 0.911 0.053 1.424zm-2.284 -1.158h-3.427c-0.507 0 -1.001 0.003 -1.405 -0.053 -0.384 -0.053 -0.812 -0.17 -1.194 -0.479l-0.16 -0.146 -0.144 -0.161c-0.307 -0.384 -0.422 -0.821 -0.473 -1.209 -0.054 -0.41 -0.053 -0.911 -0.053 -1.424s-0.002 -1.014 0.053 -1.424c0.06 -0.444 0.203 -0.951 0.617 -1.37s0.914 -0.566 1.352 -0.625c0.404 -0.056 0.899 -0.053 1.405 -0.053h3.427V9.268c0 -0.578 -0.002 -0.897 -0.031 -1.117l-0.002 -0.008 -0.008 -0.002c-0.218 -0.03 -0.533 -0.031 -1.101 -0.031H3.999a3.85 3.85 0 0 1 -1.715 -0.39v8.495c0 1.126 0.003 1.852 0.072 2.388 0.067 0.501 0.174 0.66 0.261 0.747s0.241 0.197 0.737 0.264c0.528 0.072 1.247 0.074 2.355 0.074h13.708c0.57 0 0.884 -0.002 1.101 -0.031l0.008 -0.002 0.002 -0.008c0.03 -0.22 0.031 -0.538 0.031 -1.117z" fill="currentColor"/></svg>