<svg width="24" height="23.111" viewBox="0 0 24 23.111" fill="none" xmlns="http://www.w3.org/2000/svg"><path d="M2.4 4.258c0 1.008 0.806 1.825 1.8 1.825h12.257l0.966 -0.006c0.793 -0.01 1.117 -0.041 1.369 -0.132a2.417 2.417 0 0 0 1.473 -1.494c0.109 -0.314 0.131 -0.736 0.133 -2.018H4.2c-0.994 0 -1.8 0.817 -1.8 1.824m14.4 10.338c0 0.608 0.002 0.942 0.033 1.173l0.002 0.009 0.009 0.001c0.227 0.031 0.558 0.034 1.157 0.034h3.6v-2.432h-3.6c-0.599 0 -0.928 0.002 -1.157 0.033l-0.009 0.003 -0.002 0.009c-0.031 0.231 -0.033 0.564 -0.033 1.172m7.2 4.866c0 0.538 0.002 1.066 -0.055 1.496 -0.063 0.466 -0.213 0.998 -0.648 1.44 -0.435 0.441 -0.96 0.594 -1.42 0.656 -0.425 0.058 -0.945 0.056 -1.476 0.056H6c-1.098 0 -2.041 0.003 -2.794 -0.099 -0.787 -0.107 -1.541 -0.35 -2.151 -0.969 -0.611 -0.619 -0.851 -1.384 -0.957 -2.181C-0.003 19.099 0 18.142 0 17.029V4.258l0.006 -0.219C0.118 1.79 1.953 0.001 4.2 0.001h16.543c0.14 0 0.514 -0.017 0.85 0.102a1.81 1.81 0 0 1 1.105 1.12c0.117 0.341 0.1 0.721 0.1 0.862 0 1.355 0.017 2.342 -0.27 3.172a4.815 4.815 0 0 1 -0.43 0.919c0.4 0.082 0.83 0.248 1.196 0.619 0.435 0.442 0.586 0.974 0.648 1.44 0.057 0.43 0.055 0.957 0.055 1.496zm-2.4 -1.217h-3.6c-0.532 0 -1.052 0.003 -1.476 -0.055 -0.403 -0.055 -0.854 -0.178 -1.254 -0.504l-0.168 -0.153 -0.151 -0.169c-0.322 -0.404 -0.443 -0.862 -0.497 -1.27 -0.057 -0.431 -0.055 -0.957 -0.055 -1.496 0 -0.538 -0.002 -1.065 0.055 -1.496 0.063 -0.467 0.213 -0.999 0.648 -1.44s0.96 -0.594 1.42 -0.657c0.425 -0.058 0.945 -0.056 1.476 -0.056h3.6v-1.216c0 -0.608 -0.002 -0.942 -0.033 -1.173l-0.001 -0.009 -0.009 -0.002c-0.229 -0.031 -0.559 -0.033 -1.157 -0.033H4.2a4.141 4.141 0 0 1 -1.801 -0.409v8.923c0 1.182 0.003 1.945 0.077 2.508 0.07 0.527 0.183 0.693 0.274 0.785 0.091 0.093 0.254 0.207 0.774 0.278 0.555 0.075 1.309 0.078 2.474 0.078h14.4c0.599 0 0.928 -0.002 1.157 -0.033l0.009 -0.002 0.002 -0.009c0.031 -0.231 0.033 -0.565 0.033 -1.173z" fill="currentColor"/></svg>