<svg width="28" height="28" viewBox="0 0 28 28" fill="none" xmlns="http://www.w3.org/2000/svg"><path x="4.75781" y="4.38867" width="9.22238" height="9.22238" rx="1.31748" stroke="currentColor" stroke-width="2.2357321212121213" stroke-linecap="round" d="M5.154 3.724h5.588a1.12 1.12 0 0 1 1.119 1.118v5.591a1.12 1.12 0 0 1 -1.119 1.118h-5.588a1.12 1.12 0 0 1 -1.118 -1.118V4.842a1.12 1.12 0 0 1 1.118 -1.118z"/><path x="4.75781" y="18.881" width="9.22238" height="9.22238" rx="1.31748" stroke="currentColor" stroke-width="2.2357321212121213" stroke-linecap="round" d="M5.154 16.021h5.588a1.12 1.12 0 0 1 1.119 1.119v5.588a1.12 1.12 0 0 1 -1.119 1.118h-5.588a1.12 1.12 0 0 1 -1.118 -1.118v-5.588a1.12 1.12 0 0 1 1.118 -1.119z"/><path x="19.25" y="4.38867" width="9.22238" height="9.22238" rx="1.31748" stroke="currentColor" stroke-width="2.2357321212121213" stroke-linecap="round" d="M17.451 3.724h5.591a1.12 1.12 0 0 1 1.118 1.118v5.591a1.12 1.12 0 0 1 -1.118 1.118h-5.591A1.12 1.12 0 0 1 16.333 10.432V4.842a1.12 1.12 0 0 1 1.118 -1.118z"/><path d="M20.245 16.022v7.825" stroke="currentColor" stroke-width="2.2357321212121213" stroke-linecap="round"/><path d="M24.158 19.934H16.333" stroke="currentColor" stroke-width="2.2357321212121213" stroke-linecap="round"/></svg>